<svg width="96" height="16" viewBox="0 0 96 16" fill="none" xmlns="http://www.w3.org/2000/svg">
<g id="Star">
<g id="Icon/Solid/star">
<path id="Icon" d="M6.95816 0.741543C7.27942 -0.247181 8.6782 -0.247181 8.99945 0.741543L10.1473 4.2742C10.291 4.71637 10.703 5.01575 11.1679 5.01575H14.8824C15.922 5.01575 16.3542 6.34607 15.5132 6.95713L12.5081 9.14044C12.132 9.41371 11.9746 9.89811 12.1183 10.3403L13.2661 13.8729C13.5874 14.8617 12.4557 15.6838 11.6147 15.0728L8.6096 12.8895C8.23347 12.6162 7.72415 12.6162 7.34801 12.8895L4.34295 15.0728C3.5019 15.6838 2.37026 14.8617 2.69151 13.8729L3.83935 10.3403C3.98302 9.89811 3.82563 9.41371 3.44949 9.14044L0.444434 6.95713C-0.396625 6.34607 0.0356224 5.01575 1.07523 5.01575H4.78969C5.25461 5.01575 5.66666 4.71637 5.81033 4.2742L6.95816 0.741543Z" fill="#F59E0B"/>
</g>
<g id="Icon/Solid/star_2">
<path id="Icon_2" d="M26.9157 0.741543C27.2369 -0.247181 28.6357 -0.247181 28.957 0.741543L30.1048 4.2742C30.2485 4.71637 30.6605 5.01575 31.1255 5.01575H34.8399C35.8795 5.01575 36.3118 6.34607 35.4707 6.95713L32.4656 9.14044C32.0895 9.41371 31.9321 9.89811 32.0758 10.3403L33.2236 13.8729C33.5449 14.8617 32.4132 15.6838 31.5722 15.0728L28.5671 12.8895C28.191 12.6162 27.6817 12.6162 27.3055 12.8895L24.3005 15.0728C23.4594 15.6838 22.3278 14.8617 22.649 13.8729L23.7969 10.3403C23.9405 9.89811 23.7831 9.41371 23.407 9.14044L20.402 6.95713C19.5609 6.34607 19.9931 5.01575 21.0327 5.01575H24.7472C25.2121 5.01575 25.6242 4.71637 25.7679 4.2742L26.9157 0.741543Z" fill="#F59E0B"/>
</g>
<g id="Icon/Solid/star_3">
<path id="Icon_3" d="M46.8732 0.741543C47.1945 -0.247181 48.5932 -0.247181 48.9145 0.741543L50.0623 4.2742C50.206 4.71637 50.618 5.01575 51.083 5.01575H54.7974C55.837 5.01575 56.2693 6.34607 55.4282 6.95713L52.4232 9.14044C52.047 9.41371 51.8896 9.89811 52.0333 10.3403L53.1811 13.8729C53.5024 14.8617 52.3708 15.6838 51.5297 15.0728L48.5246 12.8895C48.1485 12.6162 47.6392 12.6162 47.2631 12.8895L44.258 15.0728C43.4169 15.6838 42.2853 14.8617 42.6066 13.8729L43.7544 10.3403C43.8981 9.89811 43.7407 9.41371 43.3645 9.14044L40.3595 6.95713C39.5184 6.34607 39.9507 5.01575 40.9903 5.01575H44.7047C45.1697 5.01575 45.5817 4.71637 45.7254 4.2742L46.8732 0.741543Z" fill="#F59E0B"/>
</g>
<g id="Icon/Solid/star_4">
<path id="Icon_4" d="M66.8307 0.741543C67.152 -0.247181 68.5508 -0.247181 68.872 0.741543L70.0198 4.2742C70.1635 4.71637 70.5756 5.01575 71.0405 5.01575H74.7549C75.7946 5.01575 76.2268 6.34607 75.3857 6.95713L72.3807 9.14044C72.0045 9.41371 71.8472 9.89811 71.9908 10.3403L73.1387 13.8729C73.4599 14.8617 72.3283 15.6838 71.4872 15.0728L68.4822 12.8895C68.106 12.6162 67.5967 12.6162 67.2206 12.8895L64.2155 15.0728C63.3745 15.6838 62.2428 14.8617 62.5641 13.8729L63.7119 10.3403C63.8556 9.89811 63.6982 9.41371 63.3221 9.14044L60.317 6.95713C59.4759 6.34607 59.9082 5.01575 60.9478 5.01575H64.6622C65.1272 5.01575 65.5392 4.71637 65.6829 4.2742L66.8307 0.741543Z" fill="#F59E0B"/>
</g>
<g id="Icon/Solid/star_5">
<path id="Icon_5" d="M86.7882 0.741543C87.1095 -0.247181 88.5083 -0.247181 88.8295 0.741543L89.9774 4.2742C90.121 4.71637 90.5331 5.01575 90.998 5.01575H94.7125C95.7521 5.01575 96.1843 6.34607 95.3433 6.95713L92.3382 9.14044C91.9621 9.41371 91.8047 9.89811 91.9483 10.3403L93.0962 13.8729C93.4174 14.8617 92.2858 15.6838 91.4447 15.0728L88.4397 12.8895C88.0635 12.6162 87.5542 12.6162 87.1781 12.8895L84.173 15.0728C83.332 15.6838 82.2003 14.8617 82.5216 13.8729L83.6694 10.3403C83.8131 9.89811 83.6557 9.41371 83.2796 9.14044L80.2745 6.95713C79.4335 6.34607 79.8657 5.01575 80.9053 5.01575H84.6198C85.0847 5.01575 85.4967 4.71637 85.6404 4.2742L86.7882 0.741543Z" fill="#F59E0B"/>
</g>
</g>
</svg>
