<svg width="123" height="31" viewBox="0 0 123 31" fill="none" xmlns="http://www.w3.org/2000/svg">
<g id="trustpilot-1 1">
<path id="Vector" d="M32.3285 10.7009H44.772V13.0174H39.8725V26.0759H37.187V13.0174H32.308L32.3285 10.7009ZM44.239 14.9444H46.535V17.0969H46.576C46.658 16.7894 46.8015 16.5024 47.0065 16.2154C47.2115 15.9284 47.4575 15.6619 47.765 15.4364C48.052 15.1904 48.38 15.0059 48.749 14.8624C49.0975 14.7189 49.4665 14.6369 49.8355 14.6369C50.1225 14.6369 50.3275 14.6574 50.43 14.6574C50.5325 14.6779 50.6555 14.6984 50.758 14.6984V17.0559C50.594 17.0149 50.4095 16.9944 50.225 16.9739C50.0405 16.9534 49.8765 16.9329 49.692 16.9329C49.282 16.9329 48.8925 17.0149 48.5235 17.1789C48.1545 17.3429 47.847 17.5889 47.56 17.8964C47.2935 18.2244 47.068 18.6139 46.904 19.0854C46.74 19.5569 46.658 20.1104 46.658 20.7254V26.0144H44.198L44.239 14.9444ZM62.033 26.0759H59.614V24.5179H59.573C59.2655 25.0919 58.8145 25.5224 58.22 25.8709C57.6255 26.2194 57.0105 26.3834 56.3955 26.3834C54.94 26.3834 53.874 26.0349 53.218 25.2969C52.562 24.5794 52.234 23.4724 52.234 22.0169V14.9444H54.694V21.7709C54.694 22.7549 54.8785 23.4519 55.268 23.8414C55.637 24.2514 56.17 24.4564 56.8465 24.4564C57.359 24.4564 57.7895 24.3744 58.138 24.2104C58.4865 24.0464 58.7735 23.8414 58.9785 23.5749C59.204 23.3084 59.3475 22.9804 59.45 22.6114C59.5525 22.2424 59.5935 21.8324 59.5935 21.4019V14.9444H62.0535V26.0759H62.033ZM66.215 22.5089C66.297 23.2264 66.5635 23.7184 67.035 24.0259C67.5065 24.3129 68.0805 24.4564 68.7365 24.4564C68.962 24.4564 69.2285 24.4359 69.5155 24.3949C69.8025 24.3539 70.0895 24.2924 70.3355 24.1899C70.602 24.0874 70.807 23.9439 70.971 23.7389C71.135 23.5339 71.217 23.2879 71.1965 22.9804C71.176 22.6729 71.0735 22.4064 70.848 22.2014C70.6225 21.9964 70.356 21.8529 70.028 21.7094C69.7 21.5864 69.3105 21.4839 68.88 21.4019C68.4495 21.3199 68.019 21.2174 67.568 21.1149C67.117 21.0124 66.666 20.8894 66.2355 20.7459C65.805 20.6024 65.436 20.4179 65.0875 20.1514C64.7595 19.9054 64.4725 19.5979 64.288 19.2084C64.083 18.8189 63.9805 18.3679 63.9805 17.7939C63.9805 17.1789 64.124 16.6869 64.4315 16.2769C64.7185 15.8669 65.108 15.5389 65.559 15.2929C66.01 15.0469 66.5225 14.8624 67.076 14.7599C67.6295 14.6574 68.1625 14.6164 68.6545 14.6164C69.2285 14.6164 69.782 14.6779 70.2945 14.8009C70.807 14.9239 71.299 15.1084 71.709 15.3954C72.1395 15.6619 72.488 16.0309 72.7545 16.4614C73.0415 16.8919 73.2055 17.4249 73.2875 18.0399H70.725C70.602 17.4454 70.3355 17.0559 69.9255 16.8509C69.495 16.6459 69.0235 16.5434 68.47 16.5434C68.306 16.5434 68.0805 16.5639 67.855 16.5844C67.609 16.6254 67.404 16.6664 67.1785 16.7484C66.9735 16.8304 66.789 16.9534 66.6455 17.0969C66.502 17.2404 66.42 17.4454 66.42 17.6914C66.42 17.9989 66.5225 18.2244 66.7275 18.4089C66.9325 18.5934 67.199 18.7369 67.5475 18.8804C67.8755 19.0034 68.265 19.1059 68.6955 19.1879C69.126 19.2699 69.577 19.3724 70.028 19.4749C70.479 19.5774 70.9095 19.7004 71.34 19.8439C71.7705 19.9874 72.16 20.1719 72.488 20.4384C72.816 20.6844 73.103 20.9919 73.308 21.3609C73.513 21.7299 73.6155 22.2014 73.6155 22.7344C73.6155 23.3904 73.472 23.9439 73.1645 24.4154C72.857 24.8664 72.4675 25.2559 71.996 25.5429C71.5245 25.8299 70.971 26.0349 70.397 26.1784C69.8025 26.3014 69.2285 26.3834 68.6545 26.3834C67.9575 26.3834 67.3015 26.3014 66.707 26.1374C66.1125 25.9734 65.5795 25.7274 65.149 25.4199C64.7185 25.0919 64.37 24.7024 64.124 24.2104C63.878 23.7389 63.7345 23.1649 63.714 22.4884H66.1945V22.5089H66.215ZM74.3125 14.9444H76.178V11.5824H78.638V14.9239H80.852V16.7484H78.638V22.6934C78.638 22.9599 78.6585 23.1649 78.679 23.3699C78.6995 23.5544 78.761 23.7184 78.8225 23.8414C78.9045 23.9644 79.0275 24.0669 79.171 24.1284C79.335 24.1899 79.54 24.2309 79.827 24.2309C79.991 24.2309 80.1755 24.2309 80.3395 24.2104C80.5035 24.1899 80.688 24.1694 80.852 24.1284V26.0349C80.5855 26.0759 80.319 26.0964 80.0525 26.1169C79.786 26.1579 79.54 26.1579 79.253 26.1579C78.597 26.1579 78.0845 26.0964 77.695 25.9734C77.3055 25.8504 76.998 25.6659 76.7725 25.4404C76.547 25.1944 76.4035 24.9074 76.3215 24.5589C76.2395 24.2104 76.1985 23.7799 76.178 23.3289V16.7689H74.3125V14.9034V14.9444ZM82.574 14.9444H84.8905V16.4614H84.9315C85.28 15.8054 85.7515 15.3544 86.3665 15.0674C86.9815 14.7804 87.6375 14.6369 88.3755 14.6369C89.257 14.6369 90.0155 14.7804 90.6715 15.1084C91.3275 15.4159 91.8605 15.8259 92.291 16.3794C92.7215 16.9124 93.0495 17.5479 93.2545 18.2654C93.4595 18.9829 93.5825 19.7619 93.5825 20.5614C93.5825 21.3199 93.48 22.0374 93.2955 22.7344C93.0905 23.4314 92.8035 24.0669 92.414 24.5999C92.0245 25.1329 91.5325 25.5634 90.9175 25.8914C90.3025 26.2194 89.6055 26.3834 88.7855 26.3834C88.437 26.3834 88.068 26.3424 87.7195 26.2809C87.371 26.2194 87.0225 26.1169 86.6945 25.9734C86.3665 25.8299 86.059 25.6454 85.7925 25.4199C85.5055 25.1944 85.28 24.9279 85.0955 24.6409H85.0545V30.1964H82.5945V14.9444H82.574ZM91.1635 20.5204C91.1635 20.0284 91.102 19.5364 90.9585 19.0649C90.8355 18.5934 90.6305 18.1834 90.364 17.8144C90.0975 17.4454 89.7695 17.1584 89.4005 16.9329C89.011 16.7074 88.56 16.6049 88.068 16.6049C87.043 16.6049 86.264 16.9534 85.731 17.6709C85.2185 18.3884 84.952 19.3519 84.952 20.5409C84.952 21.1149 85.0135 21.6274 85.157 22.0989C85.3005 22.5704 85.485 22.9804 85.772 23.3289C86.0385 23.6774 86.3665 23.9439 86.756 24.1489C87.1455 24.3539 87.576 24.4564 88.0885 24.4564C88.6625 24.4564 89.1135 24.3334 89.503 24.1079C89.8925 23.8824 90.2 23.5749 90.4665 23.2264C90.7125 22.8574 90.897 22.4474 90.9995 21.9759C91.102 21.4839 91.1635 21.0124 91.1635 20.5204ZM95.489 10.7009H97.949V13.0174H95.489V10.7009ZM95.489 14.9444H97.949V26.0759H95.489V14.9444ZM100.143 10.7009H102.603V26.0759H100.143V10.7009ZM110.106 26.3834C109.224 26.3834 108.425 26.2399 107.728 25.9324C107.031 25.6249 106.457 25.2354 105.965 24.7229C105.493 24.2104 105.124 23.5749 104.878 22.8574C104.632 22.1399 104.489 21.3404 104.489 20.4999C104.489 19.6594 104.612 18.8804 104.878 18.1629C105.124 17.4454 105.493 16.8304 105.965 16.2974C106.436 15.7849 107.031 15.3749 107.728 15.0879C108.425 14.8009 109.224 14.6369 110.106 14.6369C110.987 14.6369 111.787 14.7804 112.484 15.0879C113.181 15.3749 113.755 15.7849 114.247 16.2974C114.718 16.8099 115.087 17.4454 115.333 18.1629C115.579 18.8804 115.723 19.6594 115.723 20.4999C115.723 21.3609 115.6 22.1399 115.333 22.8574C115.067 23.5749 114.718 24.1899 114.247 24.7229C113.775 25.2354 113.181 25.6454 112.484 25.9324C111.787 26.2194 111.008 26.3834 110.106 26.3834ZM110.106 24.4359C110.639 24.4359 111.131 24.3129 111.52 24.0874C111.93 23.8619 112.238 23.5544 112.504 23.1854C112.771 22.8164 112.955 22.3859 113.078 21.9349C113.201 21.4634 113.263 20.9919 113.263 20.4999C113.263 20.0284 113.201 19.5569 113.078 19.0854C112.955 18.6139 112.771 18.2039 112.504 17.8349C112.238 17.4659 111.91 17.1789 111.52 16.9534C111.11 16.7279 110.639 16.6049 110.106 16.6049C109.573 16.6049 109.081 16.7279 108.691 16.9534C108.281 17.1789 107.974 17.4864 107.707 17.8349C107.441 18.2039 107.256 18.6139 107.133 19.0854C107.01 19.5569 106.949 20.0284 106.949 20.4999C106.949 20.9919 107.01 21.4634 107.133 21.9349C107.256 22.4064 107.441 22.8164 107.707 23.1854C107.974 23.5544 108.302 23.8619 108.691 24.0874C109.101 24.3334 109.573 24.4359 110.106 24.4359ZM116.461 14.9444H118.326V11.5824H120.786V14.9239H123V16.7484H120.786V22.6934C120.786 22.9599 120.807 23.1649 120.827 23.3699C120.848 23.5544 120.909 23.7184 120.971 23.8414C121.053 23.9644 121.176 24.0669 121.319 24.1284C121.483 24.1899 121.688 24.2309 121.975 24.2309C122.139 24.2309 122.324 24.2309 122.488 24.2104C122.652 24.1899 122.836 24.1694 123 24.1284V26.0349C122.734 26.0759 122.467 26.0964 122.201 26.1169C121.934 26.1579 121.688 26.1579 121.401 26.1579C120.745 26.1579 120.233 26.0964 119.843 25.9734C119.454 25.8504 119.146 25.6659 118.921 25.4404C118.695 25.1944 118.552 24.9074 118.47 24.5589C118.388 24.2104 118.347 23.7799 118.326 23.3289V16.7689H116.461V14.9034V14.9444Z" fill="black"/>
<path id="Vector_2" d="M29.4585 10.701H18.204L14.7395 0L11.2545 10.701L0 10.6805L9.10199 17.302L5.617 28.003L14.719 21.3815L23.821 28.003L20.3565 17.302L29.4585 10.701Z" fill="#00B67A"/>
<path id="Vector_3" d="M21.1358 19.721L20.3568 17.302L14.7398 21.3815L21.1358 19.721Z" fill="#005128"/>
</g>
</svg>
