<svg width="21" height="17" viewBox="0 0 21 17" fill="none" xmlns="http://www.w3.org/2000/svg">
<g id="logo-twitter">
<path id="Path" d="M20.8636 1.97165C20.0813 2.32216 19.2554 2.54124 18.3861 2.67268C19.2554 2.14691 19.9509 1.31443 20.2551 0.306701C19.4293 0.78866 18.5165 1.13918 17.5168 1.35825C16.7344 0.525773 15.6043 0 14.3872 0C12.0401 0 10.1276 1.92784 10.1276 4.29381C10.1276 4.64433 10.171 4.95103 10.258 5.25773C6.73722 5.08247 3.56421 3.37371 1.43438 0.744845C1.08665 1.40206 0.869318 2.10309 0.869318 2.89175C0.869318 4.38144 1.60824 5.69588 2.78182 6.48454C2.08636 6.44072 1.43438 6.26546 0.825852 5.95876V6.00258C0.825852 8.10567 2.30369 9.85825 4.25966 10.2526C3.91193 10.3402 3.52074 10.384 3.12955 10.384C2.86875 10.384 2.56449 10.3402 2.30369 10.2964C2.86875 12.0052 4.43352 13.2758 6.30256 13.2758C4.82472 14.4149 2.99915 15.116 0.999716 15.116C0.651989 15.116 0.304261 15.116 0 15.0722C1.9125 16.299 4.12926 17 6.56335 17C14.4307 17 18.7338 10.4278 18.7338 4.73196C18.7338 4.5567 18.7338 4.33763 18.7338 4.16237C19.5597 3.59278 20.2986 2.84794 20.8636 1.97165Z" fill="#0EA5E9"/>
</g>
</svg>
