<svg width="28" height="28" viewBox="0 0 28 28" fill="none" xmlns="http://www.w3.org/2000/svg">
<circle cx="14.0578" cy="13.7" r="13.6" fill="#C2B7CD"/>
<g clip-path="url(#clip0_3771_224)">
<path d="M19.7245 14.55V18.8C19.7245 18.9503 19.6648 19.0944 19.5585 19.2007C19.4522 19.307 19.3081 19.3667 19.1578 19.3667H18.5911C18.4409 19.3667 18.2967 19.307 18.1905 19.2007C18.0842 19.0944 18.0245 18.9503 18.0245 18.8V18.2333H10.0911V18.8C10.0911 18.9503 10.0314 19.0944 9.92517 19.2007C9.8189 19.307 9.67477 19.3667 9.52448 19.3667H8.95781C8.80752 19.3667 8.66339 19.307 8.55712 19.2007C8.45085 19.0944 8.39115 18.9503 8.39115 18.8V14.55L7.68678 14.3743C7.56424 14.3436 7.45547 14.2729 7.37775 14.1733C7.30003 14.0737 7.25782 13.951 7.25781 13.8247V13.4167C7.25781 13.3415 7.28766 13.2695 7.3408 13.2163C7.39393 13.1632 7.466 13.1333 7.54115 13.1333H8.60365L9.81518 9.90221C9.89617 9.68613 10.0412 9.49993 10.2309 9.36849C10.4205 9.23705 10.6458 9.16664 10.8765 9.16667H17.2391C17.4698 9.16664 17.6951 9.23705 17.8848 9.36849C18.0744 9.49993 18.2195 9.68613 18.3004 9.90221L19.512 13.1333H20.5745C20.6496 13.1333 20.7217 13.1632 20.7748 13.2163C20.828 13.2695 20.8578 13.3415 20.8578 13.4167V13.8247C20.8578 13.951 20.8156 14.0737 20.7379 14.1733C20.6602 14.2729 20.5514 14.3436 20.4288 14.3743L19.7245 14.55ZM9.52448 15.4V16.5333C9.52448 16.6836 9.58418 16.8278 9.69045 16.934C9.79672 17.0403 9.94086 17.1 10.0911 17.1H11.93C11.9789 17.0999 12.027 17.0872 12.0695 17.063C12.1121 17.0388 12.1476 17.0041 12.1727 16.9621C12.1978 16.9201 12.2116 16.8723 12.2128 16.8234C12.2139 16.7745 12.2024 16.7261 12.1793 16.6829C11.7231 15.8273 10.838 15.4 9.52448 15.4ZM18.5911 15.4C17.2782 15.4 16.393 15.8278 15.9357 16.6829C15.9126 16.7261 15.9011 16.7745 15.9023 16.8235C15.9035 16.8725 15.9173 16.9203 15.9425 16.9623C15.9677 17.0043 16.0033 17.0391 16.0459 17.0632C16.0885 17.0873 16.1367 17.1 16.1856 17.1H18.0245C18.1748 17.1 18.3189 17.0403 18.4252 16.934C18.5314 16.8278 18.5911 16.6836 18.5911 16.5333V15.4ZM10.6578 10.3L9.77325 12.9543C9.74489 13.0394 9.73716 13.1301 9.75069 13.2188C9.76422 13.3075 9.79863 13.3917 9.85109 13.4646C9.90354 13.5374 9.97254 13.5967 10.0524 13.6376C10.1323 13.6786 10.2207 13.6999 10.3104 13.7H17.8052C17.8949 13.6999 17.9834 13.6786 18.0632 13.6376C18.1431 13.5967 18.2121 13.5374 18.2645 13.4646C18.317 13.3917 18.3514 13.3075 18.3649 13.2188C18.3785 13.1301 18.3707 13.0394 18.3424 12.9543L17.4578 10.3H10.6578Z" fill="white"/>
</g>
<defs>
<clipPath id="clip0_3771_224">
<rect width="13.6" height="13.6" fill="white" transform="translate(7.25781 6.90001)"/>
</clipPath>
</defs>
</svg>
