<svg width="28" height="28" viewBox="0 0 28 28" fill="none" xmlns="http://www.w3.org/2000/svg">
<circle cx="13.9578" cy="13.7" r="13.6" fill="#FD4438"/>
<g clip-path="url(#clip0_3771_229)">
<path d="M18.4911 18.2333C18.4911 18.3836 18.4314 18.5278 18.3252 18.634C18.2189 18.7403 18.0747 18.8 17.9245 18.8H9.99112C9.84083 18.8 9.6967 18.7403 9.59043 18.634C9.48416 18.5278 9.42446 18.3836 9.42446 18.2333V13.1333H7.72446L13.5764 7.81348C13.6808 7.71855 13.8167 7.66594 13.9578 7.66594C14.0988 7.66594 14.2348 7.71855 14.3392 7.81348L20.1911 13.1333H18.4911V18.2333ZM13.3911 14.2667V17.6667H14.5245V14.2667H13.3911Z" fill="white"/>
</g>
<defs>
<clipPath id="clip0_3771_229">
<rect width="13.6" height="13.6" fill="white" transform="translate(7.15781 6.90001)"/>
</clipPath>
</defs>
</svg>
