<?xml version="1.0" encoding="UTF-8"?>
<svg version="1.1" xmlns="http://www.w3.org/2000/svg" width="704" height="704">
<path d="M0 0 C21.17025368 16.38894469 36.07420937 38.39598446 39.87109375 65.22265625 C41.86698729 93.60087359 37.01626151 119.14327706 18.3046875 141.3125 C2.12082269 159.87540169 -20.24013244 173.68317751 -45.27734375 175.4440918 C-74.51062385 176.4416477 -99.09547407 170.93747007 -121.31640625 150.91015625 C-139.22929826 134.14977459 -151.61588833 111.59730701 -152.46484375 86.71875 C-152.84662879 57.0855552 -146.00461057 32.82134496 -124.96484375 11.03515625 C-91.74981745 -21.9053657 -38.50962312 -27.11871696 0 0 Z " fill="#0062FF" transform="translate(408.12890625,272.77734375)"/>
<path d="M0 0 C1.16117844 -0.00524185 2.32235687 -0.0104837 3.51872253 -0.0158844 C5.96698205 -0.02228606 8.4152724 -0.02099178 10.86352539 -0.01245117 C14.58341065 -0.00395662 18.30175107 -0.03270681 22.02148438 -0.06445312 C24.41015579 -0.06606588 26.7988299 -0.06548619 29.1875 -0.0625 C30.83647026 -0.07935097 30.83647026 -0.07935097 32.51875305 -0.09654236 C42.74316864 -0.00558206 51.59135253 2.32181111 59.13671875 9.49609375 C65.93495668 17.44874944 66.02891346 25.97755817 66.10546875 35.99609375 C66.14897461 37.85331055 66.14897461 37.85331055 66.19335938 39.74804688 C66.2651708 50.18279974 64.44383965 58.88569085 56.96829224 66.55361938 C49.34126488 73.14510612 40.72087675 74.16983493 31.00390625 74.02734375 C29.22809677 74.02740417 29.22809677 74.02740417 27.41641235 74.02746582 C24.93054859 74.0221372 22.44468371 74.00466978 19.95898438 73.97558594 C16.17134742 73.93363117 12.38548725 73.93453535 8.59765625 73.94140625 C6.17056066 73.9309152 3.74347416 73.91797757 1.31640625 73.90234375 C0.19430756 73.90214233 -0.92779114 73.90194092 -2.08389282 73.9017334 C-11.4582497 73.76166811 -20.24820792 72.18417299 -27.20703125 65.43359375 C-33.56356029 57.12120962 -34.60521079 49.60113947 -34.63256836 39.36108398 C-34.64440279 37.26880549 -34.69356997 35.17954223 -34.74414062 33.08789062 C-34.86403264 23.3117052 -33.33041049 16.4008962 -27.03125 8.8125 C-26.32613281 8.21308594 -25.62101562 7.61367188 -24.89453125 6.99609375 C-24.19714844 6.37863281 -23.49976563 5.76117188 -22.78125 5.125 C-15.41457713 0.28468232 -8.58145746 -0.02279028 0 0 Z " fill="#FBFDFF" transform="translate(335.20703125,316.56640625)"/>
<path d="M0 0 C2.97 0 5.94 0 9 0 C9 2.97 9 5.94 9 9 C11.97 9 14.94 9 18 9 C18 11.97 18 14.94 18 18 C15.03 18 12.06 18 9 18 C9 20.97 9 23.94 9 27 C6.03 27 3.06 27 0 27 C0 24.03 0 21.06 0 18 C-2.97 18 -5.94 18 -9 18 C-9 15.03 -9 12.06 -9 9 C-6.03 9 -3.06 9 0 9 C0 6.03 0 3.06 0 0 Z " fill="#0465FF" transform="translate(333,340)"/>
<path d="M0 0 C2.97 0 5.94 0 9 0 C9 2.97 9 5.94 9 9 C6.03 9 3.06 9 0 9 C0 6.03 0 3.06 0 0 Z " fill="#0364FF" transform="translate(369,358)"/>
<path d="M0 0 C2.97 0 5.94 0 9 0 C9 2.97 9 5.94 9 9 C6.03 9 3.06 9 0 9 C0 6.03 0 3.06 0 0 Z " fill="#0062FF" transform="translate(360,340)"/>
</svg>
