<svg width="423" height="385" viewBox="0 0 423 385" fill="none" xmlns="http://www.w3.org/2000/svg">
<g filter="url(#filter0_d_3601_3932)">
<rect width="422.258" height="385" rx="12.4194" fill="white"/>
<path d="M45.9512 311.105H371.338" stroke="#E4E4E4" stroke-opacity="0.2" stroke-width="1.24194" stroke-linecap="square"/>
<path d="M45.9512 265.153H371.338" stroke="#E4E4E4" stroke-opacity="0.2" stroke-width="1.24194" stroke-linecap="square"/>
<path d="M45.9512 219.202H371.338" stroke="#E4E4E4" stroke-opacity="0.2" stroke-width="1.24194" stroke-linecap="square"/>
<path d="M45.9512 173.25H371.338" stroke="#E4E4E4" stroke-opacity="0.2" stroke-width="1.24194" stroke-linecap="square"/>
<path d="M45.9512 127.299H371.338" stroke="#E4E4E4" stroke-opacity="0.2" stroke-width="1.24194" stroke-linecap="square"/>
<path d="M45.9512 81.3464H371.338" stroke="#E4E4E4" stroke-opacity="0.2" stroke-width="1.24194" stroke-linecap="square"/>
<path d="M49.0566 288.347L92.6033 274.642L137.394 212.344L181.563 236.017L226.354 172.473L271.767 147.554L313.447 191.625L348.284 120.143L368.234 108.975" stroke="#27B3AA" stroke-width="2.48387" stroke-linecap="round" stroke-linejoin="round"/>
<g filter="url(#filter1_dd_3601_3932)">
<rect x="262.67" y="140.557" width="17.3871" height="17.3871" rx="8.69355" fill="#27B3AA"/>
<rect x="263.912" y="141.799" width="14.9032" height="14.9032" rx="7.45161" stroke="white" stroke-width="2.48387"/>
</g>
<g filter="url(#filter2_dd_3601_3932)">
<rect x="339.668" y="111.992" width="17.3871" height="17.3871" rx="8.69355" fill="#27B3AA"/>
<rect x="340.91" y="113.234" width="14.9032" height="14.9032" rx="7.45161" stroke="white" stroke-width="2.48387"/>
</g>
<g filter="url(#filter3_dd_3601_3932)">
<rect x="303.652" y="182.782" width="17.3871" height="17.3871" rx="8.69355" fill="#27B3AA"/>
<rect x="304.894" y="184.024" width="14.9032" height="14.9032" rx="7.45161" stroke="white" stroke-width="2.48387"/>
</g>
<g filter="url(#filter4_dd_3601_3932)">
<rect x="220.445" y="161.67" width="17.3871" height="17.3871" rx="8.69355" fill="#27B3AA"/>
<rect x="221.687" y="162.912" width="14.9032" height="14.9032" rx="7.45161" stroke="white" stroke-width="2.48387"/>
</g>
<g filter="url(#filter5_dd_3601_3932)">
<rect x="172.01" y="226.251" width="17.3871" height="17.3871" rx="8.69355" fill="#27B3AA"/>
<rect x="173.252" y="227.493" width="14.9032" height="14.9032" rx="7.45161" stroke="white" stroke-width="2.48387"/>
</g>
<g filter="url(#filter6_dd_3601_3932)">
<rect x="129.781" y="203.896" width="17.3871" height="17.3871" rx="8.69355" fill="#27B3AA"/>
<rect x="131.023" y="205.137" width="14.9032" height="14.9032" rx="7.45161" stroke="white" stroke-width="2.48387"/>
</g>
<g filter="url(#filter7_dd_3601_3932)">
<rect x="83.832" y="264.75" width="17.3871" height="17.3871" rx="8.69355" fill="#27B3AA"/>
<rect x="85.074" y="265.992" width="14.9032" height="14.9032" rx="7.45161" stroke="white" stroke-width="2.48387"/>
</g>
<path d="M281.744 345.839H288.012V344.772H283.394V344.694L285.625 342.307C287.333 340.478 287.837 339.624 287.837 338.523C287.837 336.99 286.595 335.768 284.849 335.768C283.107 335.768 281.783 336.951 281.783 338.698H282.928C282.928 337.567 283.66 336.815 284.81 336.815C285.887 336.815 286.712 337.475 286.712 338.523C286.712 339.44 286.173 340.119 285.024 341.376L281.744 344.966V345.839ZM293.256 345.975C295.449 345.975 296.71 344.117 296.71 340.871C296.71 337.65 295.43 335.768 293.256 335.768C291.083 335.768 289.802 337.65 289.802 340.871C289.802 344.117 291.063 345.975 293.256 345.975ZM293.256 344.907C291.811 344.907 290.966 343.457 290.966 340.871C290.966 338.29 291.82 336.815 293.256 336.815C294.692 336.815 295.546 338.29 295.546 340.871C295.546 343.457 294.702 344.907 293.256 344.907ZM298.554 345.839H304.822V344.772H300.203V344.694L302.435 342.307C304.143 340.478 304.647 339.624 304.647 338.523C304.647 336.99 303.405 335.768 301.659 335.768C299.917 335.768 298.593 336.951 298.593 338.698H299.738C299.738 337.567 300.47 336.815 301.62 336.815C302.697 336.815 303.522 337.475 303.522 338.523C303.522 339.44 302.983 340.119 301.833 341.376L298.554 344.966V345.839ZM310.066 345.975C312.259 345.975 313.52 344.117 313.52 340.871C313.52 337.65 312.239 335.768 310.066 335.768C307.893 335.768 306.612 337.65 306.612 340.871C306.612 344.117 307.873 345.975 310.066 345.975ZM310.066 344.907C308.62 344.907 307.776 343.457 307.776 340.871C307.776 338.29 308.63 336.815 310.066 336.815C311.502 336.815 312.356 338.29 312.356 340.871C312.356 343.457 311.512 344.907 310.066 344.907Z" fill="#999999"/>
<path d="M220.589 345.839H226.857V344.772H222.238V344.694L224.47 342.307C226.177 340.478 226.682 339.624 226.682 338.523C226.682 336.99 225.44 335.768 223.694 335.768C221.952 335.768 220.628 336.951 220.628 338.698H221.772C221.772 337.567 222.505 336.815 223.655 336.815C224.732 336.815 225.557 337.475 225.557 338.523C225.557 339.44 225.018 340.119 223.868 341.376L220.589 344.966V345.839ZM232.101 345.975C234.294 345.975 235.555 344.117 235.555 340.871C235.555 337.65 234.274 335.768 232.101 335.768C229.928 335.768 228.647 337.65 228.647 340.871C228.647 344.117 229.908 345.975 232.101 345.975ZM232.101 344.907C230.655 344.907 229.811 343.457 229.811 340.871C229.811 338.29 230.665 336.815 232.101 336.815C233.537 336.815 234.391 338.29 234.391 340.871C234.391 343.457 233.547 344.907 232.101 344.907ZM240.892 335.903H239.688L237.205 337.553V338.775L239.63 337.165H239.688V345.839H240.892V335.903ZM246.912 335.768C244.894 335.743 243.594 337.262 243.594 339.086C243.594 341.007 245.01 342.385 246.718 342.385C247.746 342.385 248.62 341.88 249.163 341.065H249.241C249.241 343.51 248.29 344.907 246.757 344.907C245.709 344.907 245.068 344.248 244.855 343.336H243.671C243.904 344.907 245.088 345.975 246.757 345.975C248.988 345.975 250.366 343.995 250.366 340.464C250.366 336.815 248.542 335.787 246.912 335.768ZM246.912 336.835C248.154 336.835 249.066 337.902 249.066 339.066C249.066 340.25 248.096 341.317 246.873 341.317C245.651 341.317 244.758 340.328 244.758 339.086C244.758 337.844 245.689 336.835 246.912 336.835Z" fill="#999999"/>
<path d="M161.423 345.839H167.691V344.772H163.073V344.694L165.304 342.307C167.012 340.478 167.517 339.624 167.517 338.523C167.517 336.99 166.275 335.768 164.528 335.768C162.787 335.768 161.462 336.951 161.462 338.698H162.607C162.607 337.567 163.34 336.815 164.489 336.815C165.566 336.815 166.391 337.475 166.391 338.523C166.391 339.44 165.853 340.119 164.703 341.376L161.423 344.966V345.839ZM172.936 345.975C175.128 345.975 176.39 344.117 176.39 340.871C176.39 337.65 175.109 335.768 172.936 335.768C170.762 335.768 169.481 337.65 169.481 340.871C169.481 344.117 170.743 345.975 172.936 345.975ZM172.936 344.907C171.49 344.907 170.646 343.457 170.646 340.871C170.646 338.29 171.5 336.815 172.936 336.815C174.372 336.815 175.225 338.29 175.225 340.871C175.225 343.457 174.381 344.907 172.936 344.907ZM181.726 335.903H180.523L178.039 337.553V338.775L180.465 337.165H180.523V345.839H181.726V335.903ZM187.766 345.975C189.75 345.975 191.133 344.815 191.143 343.2C191.133 341.943 190.294 340.876 189.221 340.677V340.619C190.153 340.376 190.764 339.464 190.774 338.407C190.764 336.893 189.493 335.768 187.766 335.768C186.02 335.768 184.748 336.893 184.758 338.407C184.748 339.464 185.36 340.376 186.311 340.619V340.677C185.219 340.876 184.38 341.943 184.389 343.2C184.38 344.815 185.762 345.975 187.766 345.975ZM187.766 344.907C186.403 344.907 185.563 344.209 185.573 343.142C185.563 342.021 186.49 341.22 187.766 341.22C189.022 341.22 189.949 342.021 189.959 343.142C189.949 344.209 189.11 344.907 187.766 344.907ZM187.766 340.192C186.679 340.192 185.913 339.513 185.922 338.484C185.913 337.475 186.65 336.815 187.766 336.815C188.862 336.815 189.6 337.475 189.609 338.484C189.6 339.513 188.833 340.192 187.766 340.192Z" fill="#999999"/>
<path d="M101.269 345.839H107.537V344.772H102.919V344.694L105.15 342.307C106.858 340.478 107.363 339.624 107.363 338.523C107.363 336.99 106.121 335.768 104.374 335.768C102.633 335.768 101.308 336.951 101.308 338.698H102.453C102.453 337.567 103.186 336.815 104.335 336.815C105.412 336.815 106.237 337.475 106.237 338.523C106.237 339.44 105.699 340.119 104.549 341.376L101.269 344.966V345.839ZM112.781 345.975C114.974 345.975 116.236 344.117 116.236 340.871C116.236 337.65 114.955 335.768 112.781 335.768C110.608 335.768 109.327 337.65 109.327 340.871C109.327 344.117 110.589 345.975 112.781 345.975ZM112.781 344.907C111.336 344.907 110.492 343.457 110.492 340.871C110.492 338.29 111.345 336.815 112.781 336.815C114.217 336.815 115.071 338.29 115.071 340.871C115.071 343.457 114.227 344.907 112.781 344.907ZM121.572 335.903H120.369L117.885 337.553V338.775L120.311 337.165H120.369V345.839H121.572V335.903ZM124.74 345.839H126.001L130.426 337.029V335.903H124.061V336.971H129.184V337.048L124.74 345.839Z" fill="#999999"/>
<path d="M341.915 345.839H348.183V344.772H343.565V344.694L345.796 342.307C347.504 340.478 348.008 339.624 348.008 338.523C348.008 336.99 346.766 335.768 345.02 335.768C343.278 335.768 341.954 336.951 341.954 338.698H343.099C343.099 337.567 343.831 336.815 344.981 336.815C346.058 336.815 346.883 337.475 346.883 338.523C346.883 339.44 346.344 340.119 345.195 341.376L341.915 344.966V345.839ZM353.427 345.975C355.62 345.975 356.881 344.117 356.881 340.871C356.881 337.65 355.601 335.768 353.427 335.768C351.254 335.768 349.973 337.65 349.973 340.871C349.973 344.117 351.234 345.975 353.427 345.975ZM353.427 344.907C351.982 344.907 351.137 343.457 351.137 340.871C351.137 338.29 351.991 336.815 353.427 336.815C354.863 336.815 355.717 338.29 355.717 340.871C355.717 343.457 354.873 344.907 353.427 344.907ZM358.725 345.839H364.993V344.772H360.374V344.694L362.606 342.307C364.314 340.478 364.818 339.624 364.818 338.523C364.818 336.99 363.576 335.768 361.83 335.768C360.088 335.768 358.764 336.951 358.764 338.698H359.909C359.909 337.567 360.641 336.815 361.791 336.815C362.868 336.815 363.693 337.475 363.693 338.523C363.693 339.44 363.154 340.119 362.004 341.376L358.725 344.966V345.839ZM366.996 345.839H373.264V344.772H368.646V344.694L370.877 342.307C372.585 340.478 373.09 339.624 373.09 338.523C373.09 336.99 371.848 335.768 370.101 335.768C368.36 335.768 367.035 336.951 367.035 338.698H368.18C368.18 337.567 368.913 336.815 370.062 336.815C371.139 336.815 371.964 337.475 371.964 338.523C371.964 339.44 371.426 340.119 370.276 341.376L366.996 344.966V345.839Z" fill="#999999"/>
<path d="M40.4501 345.839H46.718V344.772H42.0995V344.694L44.3311 342.307C46.0388 340.478 46.5433 339.624 46.5433 338.523C46.5433 336.99 45.3014 335.768 43.5549 335.768C41.8133 335.768 40.4889 336.951 40.4889 338.698H41.6338C41.6338 337.567 42.3664 336.815 43.5161 336.815C44.5931 336.815 45.4178 337.475 45.4178 338.523C45.4178 339.44 44.8793 340.119 43.7296 341.376L40.4501 344.966V345.839ZM51.9623 345.975C54.155 345.975 55.4164 344.117 55.4164 340.871C55.4164 337.65 54.1356 335.768 51.9623 335.768C49.7889 335.768 48.5081 337.65 48.5081 340.871C48.5081 344.117 49.7695 345.975 51.9623 345.975ZM51.9623 344.907C50.5166 344.907 49.6724 343.457 49.6724 340.871C49.6724 338.29 50.5263 336.815 51.9623 336.815C53.3982 336.815 54.2521 338.29 54.2521 340.871C54.2521 343.457 53.4079 344.907 51.9623 344.907ZM60.7528 335.903H59.5497L57.0658 337.553V338.775L59.4915 337.165H59.5497V345.839H60.7528V335.903ZM66.9091 345.975C68.9176 345.999 70.2274 344.485 70.2274 342.637C70.2274 340.716 68.806 339.338 67.1032 339.338C66.0796 339.338 65.2015 339.838 64.6581 340.658H64.5805C64.5854 338.237 65.5265 336.835 67.0644 336.835C68.1123 336.835 68.7429 337.495 68.9661 338.387H70.1498C69.9073 336.845 68.7332 335.768 67.0644 335.768C64.8279 335.768 63.455 337.747 63.455 341.259C63.455 344.932 65.2791 345.955 66.9091 345.975ZM66.9091 344.907C65.6624 344.907 64.7503 343.845 64.7552 342.656C64.76 341.468 65.7157 340.405 66.948 340.405C68.1656 340.405 69.0631 341.405 69.0631 342.637C69.0631 343.898 68.1268 344.907 66.9091 344.907Z" fill="#999999"/>
<path d="M33.052 314.654C35.2448 314.654 36.5061 312.796 36.5061 309.551C36.5061 306.33 35.2254 304.447 33.052 304.447C30.8786 304.447 29.5979 306.33 29.5979 309.551C29.5979 312.796 30.8592 314.654 33.052 314.654ZM33.052 313.587C31.6063 313.587 30.7622 312.137 30.7622 309.551C30.7622 306.97 31.616 305.495 33.052 305.495C34.488 305.495 35.3418 306.97 35.3418 309.551C35.3418 312.137 34.4977 313.587 33.052 313.587Z" fill="#999999"/>
<path d="M21.6352 268.493C23.6436 268.518 24.9535 267.004 24.9535 265.156C24.9535 263.234 23.5321 261.857 21.8292 261.857C20.8056 261.857 19.9275 262.356 19.3842 263.176H19.3066C19.3114 260.755 20.2526 259.353 21.7904 259.353C22.8383 259.353 23.469 260.013 23.6921 260.906H24.8759C24.6333 259.363 23.4593 258.286 21.7904 258.286C19.554 258.286 18.1811 260.265 18.1811 263.778C18.1811 267.45 20.0051 268.474 21.6352 268.493ZM21.6352 267.426C20.3884 267.426 19.4764 266.364 19.4812 265.175C19.4861 263.986 20.4418 262.924 21.674 262.924C22.8917 262.924 23.7892 263.923 23.7892 265.156C23.7892 266.417 22.8529 267.426 21.6352 267.426ZM27.2482 268.435C27.7284 268.435 28.1214 268.042 28.1214 267.562C28.1214 267.082 27.7284 266.689 27.2482 266.689C26.7679 266.689 26.3749 267.082 26.3749 267.562C26.3749 268.042 26.7679 268.435 27.2482 268.435ZM33.0503 268.493C35.2431 268.493 36.5045 266.635 36.5045 263.39C36.5045 260.168 35.2237 258.286 33.0503 258.286C30.8769 258.286 29.5962 260.168 29.5962 263.39C29.5962 266.635 30.8575 268.493 33.0503 268.493ZM33.0503 267.426C31.6046 267.426 30.7605 265.975 30.7605 263.39C30.7605 260.809 31.6143 259.334 33.0503 259.334C34.4863 259.334 35.3401 260.809 35.3401 263.39C35.3401 265.975 34.496 267.426 33.0503 267.426Z" fill="#999999"/>
<path d="M21.7152 223.315C23.7237 223.339 25.0335 221.825 25.0335 219.977C25.0335 218.056 23.6121 216.678 21.9093 216.678C20.8857 216.678 20.0076 217.178 19.4642 217.998H19.3866C19.3915 215.577 20.3326 214.175 21.8705 214.175C22.9184 214.175 23.549 214.834 23.7722 215.727H24.9559C24.7133 214.184 23.5393 213.107 21.8705 213.107C19.634 213.107 18.2611 215.087 18.2611 218.599C18.2611 222.272 20.0852 223.295 21.7152 223.315ZM21.7152 222.247C20.4684 222.247 19.5564 221.185 19.5613 219.996C19.5661 218.808 20.5218 217.745 21.754 217.745C22.9717 217.745 23.8692 218.745 23.8692 219.977C23.8692 221.238 22.9329 222.247 21.7152 222.247ZM27.3282 223.256C27.8085 223.256 28.2014 222.863 28.2014 222.383C28.2014 221.903 27.8085 221.51 27.3282 221.51C26.8479 221.51 26.455 221.903 26.455 222.383C26.455 222.863 26.8479 223.256 27.3282 223.256ZM33.1413 223.315C35.0333 223.315 36.4208 221.917 36.4208 220.016C36.4208 218.09 35.0818 216.678 33.2577 216.678C32.5882 216.678 31.9382 216.916 31.5306 217.241H31.4724L31.8217 214.311H35.9744V213.243H30.8127L30.2111 218.133L31.3366 218.269C31.749 217.973 32.4524 217.76 33.0637 217.765C34.3299 217.774 35.2565 218.735 35.2565 220.035C35.2565 221.311 34.3638 222.247 33.1413 222.247C32.1225 222.247 31.3123 221.592 31.2202 220.695H30.0559C30.1286 222.208 31.4336 223.315 33.1413 223.315Z" fill="#999999"/>
<path d="M20.5412 177.019H21.8026L26.227 168.209V167.083H19.862V168.15H24.985V168.228L20.5412 177.019ZM28.0547 175.66H26.8128L26.7545 176.204C26.6138 177.518 26.3373 178.828 26.2112 179.444H27.0844C27.3173 178.784 27.8121 177.29 27.9771 176.184L28.0547 175.66ZM33.0503 177.154C35.2431 177.154 36.5045 175.296 36.5045 172.051C36.5045 168.83 35.2237 166.947 33.0503 166.947C30.8769 166.947 29.5962 168.83 29.5962 172.051C29.5962 175.296 30.8575 177.154 33.0503 177.154ZM33.0503 176.087C31.6046 176.087 30.7605 174.637 30.7605 172.051C30.7605 169.47 31.6143 167.995 33.0503 167.995C34.4863 167.995 35.3401 169.47 35.3401 172.051C35.3401 174.637 34.496 176.087 33.0503 176.087Z" fill="#999999"/>
<path d="M20.6213 130.858H21.8826L26.307 122.048V120.923H19.9421V121.99H25.0651V122.068L20.6213 130.858ZM28.1347 129.5H26.8928L26.8346 130.043C26.6939 131.358 26.4174 132.668 26.2912 133.284H27.1645C27.3973 132.624 27.8922 131.13 28.0571 130.024L28.1347 129.5ZM33.1413 130.994C35.0333 130.994 36.4208 129.597 36.4208 127.695C36.4208 125.769 35.0818 124.358 33.2577 124.358C32.5882 124.358 31.9382 124.595 31.5307 124.92H31.4724L31.8217 121.99H35.9745V120.923H30.8127L30.2111 125.813L31.3366 125.949C31.749 125.653 32.4524 125.439 33.0637 125.444C34.3299 125.454 35.2565 126.415 35.2565 127.715C35.2565 128.991 34.3638 129.927 33.1413 129.927C32.1225 129.927 31.3123 129.272 31.2202 128.375H30.0559C30.1286 129.888 31.4336 130.994 33.1413 130.994Z" fill="#999999"/>
<path d="M21.4654 86.797C23.4496 86.797 24.8322 85.6375 24.8419 84.022C24.8322 82.7655 23.9929 81.6982 22.9208 81.4993V81.4411C23.8522 81.1986 24.4635 80.2865 24.4732 79.2289C24.4635 77.7153 23.1925 76.5898 21.4654 76.5898C19.7189 76.5898 18.4479 77.7153 18.4576 79.2289C18.4479 80.2865 19.0591 81.1986 20.01 81.4411V81.4993C18.9185 81.6982 18.0792 82.7655 18.0889 84.022C18.0792 85.6375 19.4618 86.797 21.4654 86.797ZM21.4654 85.7297C20.1022 85.7297 19.2629 85.0311 19.2726 83.9638C19.2629 82.8432 20.1895 82.0427 21.4654 82.0427C22.7219 82.0427 23.6485 82.8432 23.6582 83.9638C23.6485 85.0311 22.8092 85.7297 21.4654 85.7297ZM21.4654 81.0142C20.3787 81.0142 19.6122 80.335 19.6219 79.3065C19.6122 78.2975 20.3496 77.6377 21.4654 77.6377C22.5618 77.6377 23.2992 78.2975 23.3089 79.3065C23.2992 80.335 22.5327 81.0142 21.4654 81.0142ZM27.2482 86.7388C27.7284 86.7388 28.1214 86.3458 28.1214 85.8655C28.1214 85.3852 27.7284 84.9923 27.2482 84.9923C26.7679 84.9923 26.3749 85.3852 26.3749 85.8655C26.3749 86.3458 26.7679 86.7388 27.2482 86.7388ZM33.0503 86.797C35.2431 86.797 36.5045 84.9389 36.5045 81.6934C36.5045 78.4721 35.2237 76.5898 33.0503 76.5898C30.8769 76.5898 29.5962 78.4721 29.5962 81.6934C29.5962 84.9389 30.8575 86.797 33.0503 86.797ZM33.0503 85.7297C31.6046 85.7297 30.7605 84.2791 30.7605 81.6934C30.7605 79.1125 31.6143 77.6377 33.0503 77.6377C34.4863 77.6377 35.3401 79.1125 35.3401 81.6934C35.3401 84.2791 34.496 85.7297 33.0503 85.7297Z" fill="#999999"/>
<path d="M19.705 29.2192H22.4504C22.4107 26.8046 20.4261 25.1375 17.4095 25.1375C14.4391 25.1375 12.2627 26.7781 12.2759 29.239C12.2693 31.2369 13.6784 32.3814 15.9673 32.9304L17.4425 33.3009C18.9178 33.6581 19.7381 34.0815 19.7447 34.9945C19.7381 35.9868 18.7987 36.6615 17.3433 36.6615C15.8548 36.6615 14.7831 35.9735 14.6905 34.6174H11.9187C11.9914 37.548 14.0885 39.0629 17.3764 39.0629C20.6841 39.0629 22.629 37.4819 22.6356 35.0011C22.629 32.7452 20.9289 31.5478 18.5738 31.0186L17.3565 30.7275C16.179 30.4563 15.1933 30.0197 15.2131 29.0472C15.2131 28.174 15.9871 27.5323 17.3896 27.5323C18.759 27.5323 19.5992 28.1541 19.705 29.2192ZM27.407 39.0629C28.9087 39.0629 29.8812 38.408 30.3773 37.462H30.4567V38.8711H33.1294V32.0175C33.1294 29.5963 31.0786 28.5775 28.8161 28.5775C26.3816 28.5775 24.7807 29.7418 24.3904 31.5941L26.9969 31.8058C27.1887 31.131 27.7907 30.6349 28.8029 30.6349C29.7621 30.6349 30.3112 31.1178 30.3112 31.9514V31.9911C30.3112 32.646 29.6166 32.732 27.8503 32.904C25.8392 33.0892 24.0332 33.764 24.0332 36.0331C24.0332 38.0442 25.4687 39.0629 27.407 39.0629ZM28.2141 37.118C27.3475 37.118 26.7256 36.7145 26.7256 35.9405C26.7256 35.1466 27.3806 34.7563 28.3729 34.6174C28.9881 34.5314 29.9937 34.3858 30.331 34.1609V35.2392C30.331 36.3043 29.4512 37.118 28.2141 37.118ZM38.1339 25.3227H35.3158V38.8711H38.1339V25.3227ZM45.0222 39.0696C47.5361 39.0696 49.2296 37.8457 49.6266 35.9603L47.0201 35.7883C46.7356 36.5623 46.0079 36.9659 45.0685 36.9659C43.6595 36.9659 42.7664 36.0331 42.7664 34.5181V34.5115H49.6861V33.7375C49.6861 30.2843 47.5956 28.5775 44.9098 28.5775C41.9196 28.5775 39.9813 30.701 39.9813 33.8368C39.9813 37.0585 41.8931 39.0696 45.0222 39.0696ZM42.7664 32.7651C42.8259 31.6074 43.7058 30.6812 44.9561 30.6812C46.1799 30.6812 47.0267 31.5544 47.0333 32.7651H42.7664ZM59.9797 31.6074C59.7283 29.7352 58.22 28.5775 55.6532 28.5775C53.0534 28.5775 51.34 29.7815 51.3466 31.7397C51.34 33.2612 52.2992 34.2469 54.2838 34.6438L56.0435 34.9945C56.93 35.1731 57.3335 35.4972 57.3468 36.0066C57.3335 36.6086 56.6786 37.0386 55.6929 37.0386C54.6874 37.0386 54.0192 36.6086 53.8472 35.7817L51.0753 35.9272C51.34 37.8722 52.9938 39.0696 55.6863 39.0696C58.3192 39.0696 60.2046 37.7266 60.2112 35.7222C60.2046 34.2535 59.2454 33.3737 57.274 32.9701L55.4349 32.5997C54.4889 32.3946 54.1383 32.0704 54.1449 31.5809C54.1383 30.9723 54.8263 30.5754 55.6995 30.5754C56.6786 30.5754 57.2608 31.1112 57.3997 31.7661L59.9797 31.6074ZM66.3504 38.8711H69.2148V34.4785H71.6229C74.7387 34.4785 76.5513 32.6195 76.5513 29.9138C76.5513 27.2213 74.7718 25.3227 71.6956 25.3227H66.3504V38.8711ZM69.2148 32.1829V27.6646H71.1465C72.8004 27.6646 73.6009 28.5643 73.6009 29.9138C73.6009 31.2567 72.8004 32.1829 71.1598 32.1829H69.2148ZM78.359 38.8711H81.1772V33.1223C81.1772 31.872 82.0901 31.012 83.3338 31.012C83.7241 31.012 84.26 31.0781 84.5246 31.1641V28.6635C84.2732 28.604 83.9226 28.5643 83.6381 28.5643C82.5003 28.5643 81.5675 29.2258 81.197 30.4827H81.0912V28.7098H78.359V38.8711ZM90.0997 39.0696C93.1825 39.0696 95.101 36.9592 95.101 33.8301C95.101 30.6812 93.1825 28.5775 90.0997 28.5775C87.0169 28.5775 85.0985 30.6812 85.0985 33.8301C85.0985 36.9592 87.0169 39.0696 90.0997 39.0696ZM90.113 36.8865C88.6906 36.8865 87.9629 35.5832 87.9629 33.8103C87.9629 32.0374 88.6906 30.7275 90.113 30.7275C91.5088 30.7275 92.2365 32.0374 92.2365 33.8103C92.2365 35.5832 91.5088 36.8865 90.113 36.8865ZM101.511 42.8933C104.416 42.8933 106.48 41.5702 106.48 38.9703V28.7098H103.681V30.4166H103.575C103.198 29.5897 102.371 28.5775 100.671 28.5775C98.4418 28.5775 96.5564 30.3107 96.5564 33.7706C96.5564 37.1511 98.3889 38.7256 100.678 38.7256C102.299 38.7256 103.205 37.9119 103.575 37.0717H103.694V38.9306C103.694 40.3265 102.801 40.869 101.577 40.869C100.334 40.869 99.7053 40.3265 99.4738 39.7113L96.8673 40.0619C97.2047 41.6628 98.7725 42.8933 101.511 42.8933ZM101.571 36.6086C100.188 36.6086 99.4341 35.5105 99.4341 33.7574C99.4341 32.0307 100.175 30.8201 101.571 30.8201C102.94 30.8201 103.708 31.9778 103.708 33.7574C103.708 35.5502 102.927 36.6086 101.571 36.6086ZM108.722 38.8711H111.54V33.1223C111.54 31.872 112.453 31.012 113.697 31.012C114.087 31.012 114.623 31.0781 114.888 31.1641V28.6635C114.636 28.604 114.286 28.5643 114.001 28.5643C112.863 28.5643 111.931 29.2258 111.56 30.4827H111.454V28.7098H108.722V38.8711ZM120.503 39.0696C123.016 39.0696 124.71 37.8457 125.107 35.9603L122.5 35.7883C122.216 36.5623 121.488 36.9659 120.549 36.9659C119.14 36.9659 118.247 36.0331 118.247 34.5181V34.5115H125.166V33.7375C125.166 30.2843 123.076 28.5775 120.39 28.5775C117.4 28.5775 115.462 30.701 115.462 33.8368C115.462 37.0585 117.373 39.0696 120.503 39.0696ZM118.247 32.7651C118.306 31.6074 119.186 30.6812 120.436 30.6812C121.66 30.6812 122.507 31.5544 122.514 32.7651H118.247ZM135.46 31.6074C135.209 29.7352 133.7 28.5775 131.134 28.5775C128.534 28.5775 126.82 29.7815 126.827 31.7397C126.82 33.2612 127.78 34.2469 129.764 34.6438L131.524 34.9945C132.41 35.1731 132.814 35.4972 132.827 36.0066C132.814 36.6086 132.159 37.0386 131.173 37.0386C130.168 37.0386 129.5 36.6086 129.328 35.7817L126.556 35.9272C126.82 37.8722 128.474 39.0696 131.167 39.0696C133.8 39.0696 135.685 37.7266 135.692 35.7222C135.685 34.2535 134.726 33.3737 132.754 32.9701L130.915 32.5997C129.969 32.3946 129.619 32.0704 129.625 31.5809C129.619 30.9723 130.307 30.5754 131.18 30.5754C132.159 30.5754 132.741 31.1112 132.88 31.7661L135.46 31.6074ZM145.921 31.6074C145.669 29.7352 144.161 28.5775 141.594 28.5775C138.994 28.5775 137.281 29.7815 137.288 31.7397C137.281 33.2612 138.24 34.2469 140.225 34.6438L141.984 34.9945C142.871 35.1731 143.274 35.4972 143.288 36.0066C143.274 36.6086 142.62 37.0386 141.634 37.0386C140.628 37.0386 139.96 36.6086 139.788 35.7817L137.016 35.9272C137.281 37.8722 138.935 39.0696 141.627 39.0696C144.26 39.0696 146.146 37.7266 146.152 35.7222C146.146 34.2535 145.186 33.3737 143.215 32.9701L141.376 32.5997C140.43 32.3946 140.079 32.0704 140.086 31.5809C140.079 30.9723 140.767 30.5754 141.64 30.5754C142.62 30.5754 143.202 31.1112 143.341 31.7661L145.921 31.6074Z" fill="#12141D"/>
</g>
<defs>
<filter id="filter0_d_3601_3932" x="-60" y="-56" width="542.258" height="505" filterUnits="userSpaceOnUse" color-interpolation-filters="sRGB">
<feFlood flood-opacity="0" result="BackgroundImageFix"/>
<feColorMatrix in="SourceAlpha" type="matrix" values="0 0 0 0 0 0 0 0 0 0 0 0 0 0 0 0 0 0 127 0" result="hardAlpha"/>
<feOffset dy="4"/>
<feGaussianBlur stdDeviation="30"/>
<feComposite in2="hardAlpha" operator="out"/>
<feColorMatrix type="matrix" values="0 0 0 0 0 0 0 0 0 0 0 0 0 0 0 0 0 0 0.08 0"/>
<feBlend mode="normal" in2="BackgroundImageFix" result="effect1_dropShadow_3601_3932"/>
<feBlend mode="normal" in="SourceGraphic" in2="effect1_dropShadow_3601_3932" result="shape"/>
</filter>
<filter id="filter1_dd_3601_3932" x="257.702" y="138.073" width="27.3226" height="27.3226" filterUnits="userSpaceOnUse" color-interpolation-filters="sRGB">
<feFlood flood-opacity="0" result="BackgroundImageFix"/>
<feColorMatrix in="SourceAlpha" type="matrix" values="0 0 0 0 0 0 0 0 0 0 0 0 0 0 0 0 0 0 127 0" result="hardAlpha"/>
<feOffset dy="2.48387"/>
<feGaussianBlur stdDeviation="2.48387"/>
<feColorMatrix type="matrix" values="0 0 0 0 0.196487 0 0 0 0 0.196487 0 0 0 0 0.279476 0 0 0 0.06 0"/>
<feBlend mode="multiply" in2="BackgroundImageFix" result="effect1_dropShadow_3601_3932"/>
<feColorMatrix in="SourceAlpha" type="matrix" values="0 0 0 0 0 0 0 0 0 0 0 0 0 0 0 0 0 0 127 0" result="hardAlpha"/>
<feOffset dy="2.48387"/>
<feGaussianBlur stdDeviation="1.24194"/>
<feColorMatrix type="matrix" values="0 0 0 0 0.196487 0 0 0 0 0.196487 0 0 0 0 0.279476 0 0 0 0.06 0"/>
<feBlend mode="multiply" in2="effect1_dropShadow_3601_3932" result="effect2_dropShadow_3601_3932"/>
<feBlend mode="normal" in="SourceGraphic" in2="effect2_dropShadow_3601_3932" result="shape"/>
</filter>
<filter id="filter2_dd_3601_3932" x="334.7" y="109.508" width="27.3226" height="27.3226" filterUnits="userSpaceOnUse" color-interpolation-filters="sRGB">
<feFlood flood-opacity="0" result="BackgroundImageFix"/>
<feColorMatrix in="SourceAlpha" type="matrix" values="0 0 0 0 0 0 0 0 0 0 0 0 0 0 0 0 0 0 127 0" result="hardAlpha"/>
<feOffset dy="2.48387"/>
<feGaussianBlur stdDeviation="2.48387"/>
<feColorMatrix type="matrix" values="0 0 0 0 0.196487 0 0 0 0 0.196487 0 0 0 0 0.279476 0 0 0 0.06 0"/>
<feBlend mode="multiply" in2="BackgroundImageFix" result="effect1_dropShadow_3601_3932"/>
<feColorMatrix in="SourceAlpha" type="matrix" values="0 0 0 0 0 0 0 0 0 0 0 0 0 0 0 0 0 0 127 0" result="hardAlpha"/>
<feOffset dy="2.48387"/>
<feGaussianBlur stdDeviation="1.24194"/>
<feColorMatrix type="matrix" values="0 0 0 0 0.196487 0 0 0 0 0.196487 0 0 0 0 0.279476 0 0 0 0.06 0"/>
<feBlend mode="multiply" in2="effect1_dropShadow_3601_3932" result="effect2_dropShadow_3601_3932"/>
<feBlend mode="normal" in="SourceGraphic" in2="effect2_dropShadow_3601_3932" result="shape"/>
</filter>
<filter id="filter3_dd_3601_3932" x="298.685" y="180.298" width="27.3226" height="27.3226" filterUnits="userSpaceOnUse" color-interpolation-filters="sRGB">
<feFlood flood-opacity="0" result="BackgroundImageFix"/>
<feColorMatrix in="SourceAlpha" type="matrix" values="0 0 0 0 0 0 0 0 0 0 0 0 0 0 0 0 0 0 127 0" result="hardAlpha"/>
<feOffset dy="2.48387"/>
<feGaussianBlur stdDeviation="2.48387"/>
<feColorMatrix type="matrix" values="0 0 0 0 0.196487 0 0 0 0 0.196487 0 0 0 0 0.279476 0 0 0 0.06 0"/>
<feBlend mode="multiply" in2="BackgroundImageFix" result="effect1_dropShadow_3601_3932"/>
<feColorMatrix in="SourceAlpha" type="matrix" values="0 0 0 0 0 0 0 0 0 0 0 0 0 0 0 0 0 0 127 0" result="hardAlpha"/>
<feOffset dy="2.48387"/>
<feGaussianBlur stdDeviation="1.24194"/>
<feColorMatrix type="matrix" values="0 0 0 0 0.196487 0 0 0 0 0.196487 0 0 0 0 0.279476 0 0 0 0.06 0"/>
<feBlend mode="multiply" in2="effect1_dropShadow_3601_3932" result="effect2_dropShadow_3601_3932"/>
<feBlend mode="normal" in="SourceGraphic" in2="effect2_dropShadow_3601_3932" result="shape"/>
</filter>
<filter id="filter4_dd_3601_3932" x="215.478" y="159.186" width="27.3226" height="27.3226" filterUnits="userSpaceOnUse" color-interpolation-filters="sRGB">
<feFlood flood-opacity="0" result="BackgroundImageFix"/>
<feColorMatrix in="SourceAlpha" type="matrix" values="0 0 0 0 0 0 0 0 0 0 0 0 0 0 0 0 0 0 127 0" result="hardAlpha"/>
<feOffset dy="2.48387"/>
<feGaussianBlur stdDeviation="2.48387"/>
<feColorMatrix type="matrix" values="0 0 0 0 0.196487 0 0 0 0 0.196487 0 0 0 0 0.279476 0 0 0 0.06 0"/>
<feBlend mode="multiply" in2="BackgroundImageFix" result="effect1_dropShadow_3601_3932"/>
<feColorMatrix in="SourceAlpha" type="matrix" values="0 0 0 0 0 0 0 0 0 0 0 0 0 0 0 0 0 0 127 0" result="hardAlpha"/>
<feOffset dy="2.48387"/>
<feGaussianBlur stdDeviation="1.24194"/>
<feColorMatrix type="matrix" values="0 0 0 0 0.196487 0 0 0 0 0.196487 0 0 0 0 0.279476 0 0 0 0.06 0"/>
<feBlend mode="multiply" in2="effect1_dropShadow_3601_3932" result="effect2_dropShadow_3601_3932"/>
<feBlend mode="normal" in="SourceGraphic" in2="effect2_dropShadow_3601_3932" result="shape"/>
</filter>
<filter id="filter5_dd_3601_3932" x="167.042" y="223.767" width="27.3226" height="27.3226" filterUnits="userSpaceOnUse" color-interpolation-filters="sRGB">
<feFlood flood-opacity="0" result="BackgroundImageFix"/>
<feColorMatrix in="SourceAlpha" type="matrix" values="0 0 0 0 0 0 0 0 0 0 0 0 0 0 0 0 0 0 127 0" result="hardAlpha"/>
<feOffset dy="2.48387"/>
<feGaussianBlur stdDeviation="2.48387"/>
<feColorMatrix type="matrix" values="0 0 0 0 0.196487 0 0 0 0 0.196487 0 0 0 0 0.279476 0 0 0 0.06 0"/>
<feBlend mode="multiply" in2="BackgroundImageFix" result="effect1_dropShadow_3601_3932"/>
<feColorMatrix in="SourceAlpha" type="matrix" values="0 0 0 0 0 0 0 0 0 0 0 0 0 0 0 0 0 0 127 0" result="hardAlpha"/>
<feOffset dy="2.48387"/>
<feGaussianBlur stdDeviation="1.24194"/>
<feColorMatrix type="matrix" values="0 0 0 0 0.196487 0 0 0 0 0.196487 0 0 0 0 0.279476 0 0 0 0.06 0"/>
<feBlend mode="multiply" in2="effect1_dropShadow_3601_3932" result="effect2_dropShadow_3601_3932"/>
<feBlend mode="normal" in="SourceGraphic" in2="effect2_dropShadow_3601_3932" result="shape"/>
</filter>
<filter id="filter6_dd_3601_3932" x="124.814" y="201.412" width="27.3226" height="27.3226" filterUnits="userSpaceOnUse" color-interpolation-filters="sRGB">
<feFlood flood-opacity="0" result="BackgroundImageFix"/>
<feColorMatrix in="SourceAlpha" type="matrix" values="0 0 0 0 0 0 0 0 0 0 0 0 0 0 0 0 0 0 127 0" result="hardAlpha"/>
<feOffset dy="2.48387"/>
<feGaussianBlur stdDeviation="2.48387"/>
<feColorMatrix type="matrix" values="0 0 0 0 0.196487 0 0 0 0 0.196487 0 0 0 0 0.279476 0 0 0 0.06 0"/>
<feBlend mode="multiply" in2="BackgroundImageFix" result="effect1_dropShadow_3601_3932"/>
<feColorMatrix in="SourceAlpha" type="matrix" values="0 0 0 0 0 0 0 0 0 0 0 0 0 0 0 0 0 0 127 0" result="hardAlpha"/>
<feOffset dy="2.48387"/>
<feGaussianBlur stdDeviation="1.24194"/>
<feColorMatrix type="matrix" values="0 0 0 0 0.196487 0 0 0 0 0.196487 0 0 0 0 0.279476 0 0 0 0.06 0"/>
<feBlend mode="multiply" in2="effect1_dropShadow_3601_3932" result="effect2_dropShadow_3601_3932"/>
<feBlend mode="normal" in="SourceGraphic" in2="effect2_dropShadow_3601_3932" result="shape"/>
</filter>
<filter id="filter7_dd_3601_3932" x="78.8643" y="262.266" width="27.3226" height="27.3226" filterUnits="userSpaceOnUse" color-interpolation-filters="sRGB">
<feFlood flood-opacity="0" result="BackgroundImageFix"/>
<feColorMatrix in="SourceAlpha" type="matrix" values="0 0 0 0 0 0 0 0 0 0 0 0 0 0 0 0 0 0 127 0" result="hardAlpha"/>
<feOffset dy="2.48387"/>
<feGaussianBlur stdDeviation="2.48387"/>
<feColorMatrix type="matrix" values="0 0 0 0 0.196487 0 0 0 0 0.196487 0 0 0 0 0.279476 0 0 0 0.06 0"/>
<feBlend mode="multiply" in2="BackgroundImageFix" result="effect1_dropShadow_3601_3932"/>
<feColorMatrix in="SourceAlpha" type="matrix" values="0 0 0 0 0 0 0 0 0 0 0 0 0 0 0 0 0 0 127 0" result="hardAlpha"/>
<feOffset dy="2.48387"/>
<feGaussianBlur stdDeviation="1.24194"/>
<feColorMatrix type="matrix" values="0 0 0 0 0.196487 0 0 0 0 0.196487 0 0 0 0 0.279476 0 0 0 0.06 0"/>
<feBlend mode="multiply" in2="effect1_dropShadow_3601_3932" result="effect2_dropShadow_3601_3932"/>
<feBlend mode="normal" in="SourceGraphic" in2="effect2_dropShadow_3601_3932" result="shape"/>
</filter>
</defs>
</svg>
