<svg width="543" height="505" viewBox="0 0 543 505" fill="none" xmlns="http://www.w3.org/2000/svg">
<g filter="url(#filter0_d_3601_3932)">
<rect x="60" y="56" width="422.258" height="385" rx="12.4194" fill="white"/>
<path d="M105.951 367.105H431.338" stroke="#E4E4E4" stroke-opacity="0.2" stroke-width="1.24194" stroke-linecap="square"/>
<path d="M105.951 321.153H431.338" stroke="#E4E4E4" stroke-opacity="0.2" stroke-width="1.24194" stroke-linecap="square"/>
<path d="M105.951 275.202H431.338" stroke="#E4E4E4" stroke-opacity="0.2" stroke-width="1.24194" stroke-linecap="square"/>
<path d="M105.951 229.25H431.338" stroke="#E4E4E4" stroke-opacity="0.2" stroke-width="1.24194" stroke-linecap="square"/>
<path d="M105.951 183.299H431.338" stroke="#E4E4E4" stroke-opacity="0.2" stroke-width="1.24194" stroke-linecap="square"/>
<path d="M105.951 137.346H431.338" stroke="#E4E4E4" stroke-opacity="0.2" stroke-width="1.24194" stroke-linecap="square"/>
<path d="M109.057 344.347L152.603 330.642L197.394 268.344L241.563 292.017L286.354 228.473L331.767 203.554L373.447 247.625L408.284 176.143L428.234 164.975" stroke="#27B3AA" stroke-width="2.48387" stroke-linecap="round" stroke-linejoin="round"/>
<g filter="url(#filter1_dd_3601_3932)">
<rect x="322.67" y="196.557" width="17.3871" height="17.3871" rx="8.69355" fill="#27B3AA"/>
<rect x="323.912" y="197.799" width="14.9032" height="14.9032" rx="7.45161" stroke="white" stroke-width="2.48387"/>
</g>
<g filter="url(#filter2_dd_3601_3932)">
<rect x="399.668" y="167.992" width="17.3871" height="17.3871" rx="8.69355" fill="#27B3AA"/>
<rect x="400.91" y="169.234" width="14.9032" height="14.9032" rx="7.45161" stroke="white" stroke-width="2.48387"/>
</g>
<g filter="url(#filter3_dd_3601_3932)">
<rect x="363.652" y="238.782" width="17.3871" height="17.3871" rx="8.69355" fill="#27B3AA"/>
<rect x="364.894" y="240.024" width="14.9032" height="14.9032" rx="7.45161" stroke="white" stroke-width="2.48387"/>
</g>
<g filter="url(#filter4_dd_3601_3932)">
<rect x="280.445" y="217.67" width="17.3871" height="17.3871" rx="8.69355" fill="#27B3AA"/>
<rect x="281.687" y="218.912" width="14.9032" height="14.9032" rx="7.45161" stroke="white" stroke-width="2.48387"/>
</g>
<g filter="url(#filter5_dd_3601_3932)">
<rect x="232.01" y="282.251" width="17.3871" height="17.3871" rx="8.69355" fill="#27B3AA"/>
<rect x="233.252" y="283.493" width="14.9032" height="14.9032" rx="7.45161" stroke="white" stroke-width="2.48387"/>
</g>
<g filter="url(#filter6_dd_3601_3932)">
<rect x="189.781" y="259.896" width="17.3871" height="17.3871" rx="8.69355" fill="#27B3AA"/>
<rect x="191.023" y="261.137" width="14.9032" height="14.9032" rx="7.45161" stroke="white" stroke-width="2.48387"/>
</g>
<g filter="url(#filter7_dd_3601_3932)">
<rect x="143.832" y="320.75" width="17.3871" height="17.3871" rx="8.69355" fill="#27B3AA"/>
<rect x="145.074" y="321.992" width="14.9032" height="14.9032" rx="7.45161" stroke="white" stroke-width="2.48387"/>
</g>
<path d="M341.744 401.839H348.012V400.772H343.394V400.694L345.625 398.307C347.333 396.478 347.837 395.624 347.837 394.523C347.837 392.99 346.595 391.768 344.849 391.768C343.107 391.768 341.783 392.951 341.783 394.698H342.928C342.928 393.567 343.66 392.815 344.81 392.815C345.887 392.815 346.712 393.475 346.712 394.523C346.712 395.44 346.173 396.119 345.024 397.376L341.744 400.966V401.839ZM353.256 401.975C355.449 401.975 356.71 400.117 356.71 396.871C356.71 393.65 355.43 391.768 353.256 391.768C351.083 391.768 349.802 393.65 349.802 396.871C349.802 400.117 351.063 401.975 353.256 401.975ZM353.256 400.907C351.811 400.907 350.966 399.457 350.966 396.871C350.966 394.29 351.82 392.815 353.256 392.815C354.692 392.815 355.546 394.29 355.546 396.871C355.546 399.457 354.702 400.907 353.256 400.907ZM358.554 401.839H364.822V400.772H360.203V400.694L362.435 398.307C364.143 396.478 364.647 395.624 364.647 394.523C364.647 392.99 363.405 391.768 361.659 391.768C359.917 391.768 358.593 392.951 358.593 394.698H359.738C359.738 393.567 360.47 392.815 361.62 392.815C362.697 392.815 363.522 393.475 363.522 394.523C363.522 395.44 362.983 396.119 361.833 397.376L358.554 400.966V401.839ZM370.066 401.975C372.259 401.975 373.52 400.117 373.52 396.871C373.52 393.65 372.239 391.768 370.066 391.768C367.893 391.768 366.612 393.65 366.612 396.871C366.612 400.117 367.873 401.975 370.066 401.975ZM370.066 400.907C368.62 400.907 367.776 399.457 367.776 396.871C367.776 394.29 368.63 392.815 370.066 392.815C371.502 392.815 372.356 394.29 372.356 396.871C372.356 399.457 371.512 400.907 370.066 400.907Z" fill="#999999"/>
<path d="M280.589 401.839H286.857V400.772H282.238V400.694L284.47 398.307C286.177 396.478 286.682 395.624 286.682 394.523C286.682 392.99 285.44 391.768 283.694 391.768C281.952 391.768 280.628 392.951 280.628 394.698H281.772C281.772 393.567 282.505 392.815 283.655 392.815C284.732 392.815 285.557 393.475 285.557 394.523C285.557 395.44 285.018 396.119 283.868 397.376L280.589 400.966V401.839ZM292.101 401.975C294.294 401.975 295.555 400.117 295.555 396.871C295.555 393.65 294.274 391.768 292.101 391.768C289.928 391.768 288.647 393.65 288.647 396.871C288.647 400.117 289.908 401.975 292.101 401.975ZM292.101 400.907C290.655 400.907 289.811 399.457 289.811 396.871C289.811 394.29 290.665 392.815 292.101 392.815C293.537 392.815 294.391 394.29 294.391 396.871C294.391 399.457 293.547 400.907 292.101 400.907ZM300.892 391.903H299.688L297.205 393.553V394.775L299.63 393.165H299.688V401.839H300.892V391.903ZM306.912 391.768C304.894 391.743 303.594 393.262 303.594 395.086C303.594 397.007 305.01 398.385 306.718 398.385C307.746 398.385 308.62 397.88 309.163 397.065H309.241C309.241 399.51 308.29 400.907 306.757 400.907C305.709 400.907 305.068 400.248 304.855 399.336H303.671C303.904 400.907 305.088 401.975 306.757 401.975C308.988 401.975 310.366 399.995 310.366 396.464C310.366 392.815 308.542 391.787 306.912 391.768ZM306.912 392.835C308.154 392.835 309.066 393.902 309.066 395.066C309.066 396.25 308.096 397.317 306.873 397.317C305.651 397.317 304.758 396.328 304.758 395.086C304.758 393.844 305.689 392.835 306.912 392.835Z" fill="#999999"/>
<path d="M221.423 401.839H227.691V400.772H223.073V400.694L225.304 398.307C227.012 396.478 227.517 395.624 227.517 394.523C227.517 392.99 226.275 391.768 224.528 391.768C222.787 391.768 221.462 392.951 221.462 394.698H222.607C222.607 393.567 223.34 392.815 224.489 392.815C225.566 392.815 226.391 393.475 226.391 394.523C226.391 395.44 225.853 396.119 224.703 397.376L221.423 400.966V401.839ZM232.936 401.975C235.128 401.975 236.39 400.117 236.39 396.871C236.39 393.65 235.109 391.768 232.936 391.768C230.762 391.768 229.481 393.65 229.481 396.871C229.481 400.117 230.743 401.975 232.936 401.975ZM232.936 400.907C231.49 400.907 230.646 399.457 230.646 396.871C230.646 394.29 231.5 392.815 232.936 392.815C234.372 392.815 235.225 394.29 235.225 396.871C235.225 399.457 234.381 400.907 232.936 400.907ZM241.726 391.903H240.523L238.039 393.553V394.775L240.465 393.165H240.523V401.839H241.726V391.903ZM247.766 401.975C249.75 401.975 251.133 400.815 251.143 399.2C251.133 397.943 250.294 396.876 249.221 396.677V396.619C250.153 396.376 250.764 395.464 250.774 394.407C250.764 392.893 249.493 391.768 247.766 391.768C246.02 391.768 244.748 392.893 244.758 394.407C244.748 395.464 245.36 396.376 246.311 396.619V396.677C245.219 396.876 244.38 397.943 244.389 399.2C244.38 400.815 245.762 401.975 247.766 401.975ZM247.766 400.907C246.403 400.907 245.563 400.209 245.573 399.142C245.563 398.021 246.49 397.22 247.766 397.22C249.022 397.22 249.949 398.021 249.959 399.142C249.949 400.209 249.11 400.907 247.766 400.907ZM247.766 396.192C246.679 396.192 245.913 395.513 245.922 394.484C245.913 393.475 246.65 392.815 247.766 392.815C248.862 392.815 249.6 393.475 249.609 394.484C249.6 395.513 248.833 396.192 247.766 396.192Z" fill="#999999"/>
<path d="M161.269 401.839H167.537V400.772H162.919V400.694L165.15 398.307C166.858 396.478 167.363 395.624 167.363 394.523C167.363 392.99 166.121 391.768 164.374 391.768C162.633 391.768 161.308 392.951 161.308 394.698H162.453C162.453 393.567 163.186 392.815 164.335 392.815C165.412 392.815 166.237 393.475 166.237 394.523C166.237 395.44 165.699 396.119 164.549 397.376L161.269 400.966V401.839ZM172.781 401.975C174.974 401.975 176.236 400.117 176.236 396.871C176.236 393.65 174.955 391.768 172.781 391.768C170.608 391.768 169.327 393.65 169.327 396.871C169.327 400.117 170.589 401.975 172.781 401.975ZM172.781 400.907C171.336 400.907 170.492 399.457 170.492 396.871C170.492 394.29 171.345 392.815 172.781 392.815C174.217 392.815 175.071 394.29 175.071 396.871C175.071 399.457 174.227 400.907 172.781 400.907ZM181.572 391.903H180.369L177.885 393.553V394.775L180.311 393.165H180.369V401.839H181.572V391.903ZM184.74 401.839H186.001L190.426 393.029V391.903H184.061V392.971H189.184V393.048L184.74 401.839Z" fill="#999999"/>
<path d="M401.915 401.839H408.183V400.772H403.565V400.694L405.796 398.307C407.504 396.478 408.008 395.624 408.008 394.523C408.008 392.99 406.766 391.768 405.02 391.768C403.278 391.768 401.954 392.951 401.954 394.698H403.099C403.099 393.567 403.831 392.815 404.981 392.815C406.058 392.815 406.883 393.475 406.883 394.523C406.883 395.44 406.344 396.119 405.195 397.376L401.915 400.966V401.839ZM413.427 401.975C415.62 401.975 416.881 400.117 416.881 396.871C416.881 393.65 415.601 391.768 413.427 391.768C411.254 391.768 409.973 393.65 409.973 396.871C409.973 400.117 411.234 401.975 413.427 401.975ZM413.427 400.907C411.982 400.907 411.137 399.457 411.137 396.871C411.137 394.29 411.991 392.815 413.427 392.815C414.863 392.815 415.717 394.29 415.717 396.871C415.717 399.457 414.873 400.907 413.427 400.907ZM418.725 401.839H424.993V400.772H420.374V400.694L422.606 398.307C424.314 396.478 424.818 395.624 424.818 394.523C424.818 392.99 423.576 391.768 421.83 391.768C420.088 391.768 418.764 392.951 418.764 394.698H419.909C419.909 393.567 420.641 392.815 421.791 392.815C422.868 392.815 423.693 393.475 423.693 394.523C423.693 395.44 423.154 396.119 422.004 397.376L418.725 400.966V401.839ZM426.996 401.839H433.264V400.772H428.646V400.694L430.877 398.307C432.585 396.478 433.09 395.624 433.09 394.523C433.09 392.99 431.848 391.768 430.101 391.768C428.36 391.768 427.035 392.951 427.035 394.698H428.18C428.18 393.567 428.913 392.815 430.062 392.815C431.139 392.815 431.964 393.475 431.964 394.523C431.964 395.44 431.426 396.119 430.276 397.376L426.996 400.966V401.839Z" fill="#999999"/>
<path d="M100.45 401.839H106.718V400.772H102.1V400.694L104.331 398.307C106.039 396.478 106.543 395.624 106.543 394.523C106.543 392.99 105.301 391.768 103.555 391.768C101.813 391.768 100.489 392.951 100.489 394.698H101.634C101.634 393.567 102.366 392.815 103.516 392.815C104.593 392.815 105.418 393.475 105.418 394.523C105.418 395.44 104.879 396.119 103.73 397.376L100.45 400.966V401.839ZM111.962 401.975C114.155 401.975 115.416 400.117 115.416 396.871C115.416 393.65 114.136 391.768 111.962 391.768C109.789 391.768 108.508 393.65 108.508 396.871C108.508 400.117 109.769 401.975 111.962 401.975ZM111.962 400.907C110.517 400.907 109.672 399.457 109.672 396.871C109.672 394.29 110.526 392.815 111.962 392.815C113.398 392.815 114.252 394.29 114.252 396.871C114.252 399.457 113.408 400.907 111.962 400.907ZM120.753 391.903H119.55L117.066 393.553V394.775L119.491 393.165H119.55V401.839H120.753V391.903ZM126.909 401.975C128.918 401.999 130.227 400.485 130.227 398.637C130.227 396.716 128.806 395.338 127.103 395.338C126.08 395.338 125.201 395.838 124.658 396.658H124.581C124.585 394.237 125.527 392.835 127.064 392.835C128.112 392.835 128.743 393.495 128.966 394.387H130.15C129.907 392.845 128.733 391.768 127.064 391.768C124.828 391.768 123.455 393.747 123.455 397.259C123.455 400.932 125.279 401.955 126.909 401.975ZM126.909 400.907C125.662 400.907 124.75 399.845 124.755 398.656C124.76 397.468 125.716 396.405 126.948 396.405C128.166 396.405 129.063 397.405 129.063 398.637C129.063 399.898 128.127 400.907 126.909 400.907Z" fill="#999999"/>
<path d="M93.052 370.654C95.2448 370.654 96.5061 368.796 96.5061 365.551C96.5061 362.33 95.2254 360.447 93.052 360.447C90.8786 360.447 89.5979 362.33 89.5979 365.551C89.5979 368.796 90.8592 370.654 93.052 370.654ZM93.052 369.587C91.6063 369.587 90.7622 368.137 90.7622 365.551C90.7622 362.97 91.616 361.495 93.052 361.495C94.488 361.495 95.3418 362.97 95.3418 365.551C95.3418 368.137 94.4977 369.587 93.052 369.587Z" fill="#999999"/>
<path d="M81.6352 324.493C83.6436 324.518 84.9535 323.004 84.9535 321.156C84.9535 319.234 83.5321 317.857 81.8292 317.857C80.8056 317.857 79.9275 318.356 79.3842 319.176H79.3066C79.3114 316.755 80.2526 315.353 81.7904 315.353C82.8383 315.353 83.469 316.013 83.6921 316.906H84.8759C84.6333 315.363 83.4593 314.286 81.7904 314.286C79.554 314.286 78.1811 316.265 78.1811 319.778C78.1811 323.45 80.0051 324.474 81.6352 324.493ZM81.6352 323.426C80.3884 323.426 79.4764 322.364 79.4812 321.175C79.4861 319.986 80.4418 318.924 81.674 318.924C82.8917 318.924 83.7892 319.923 83.7892 321.156C83.7892 322.417 82.8529 323.426 81.6352 323.426ZM87.2482 324.435C87.7284 324.435 88.1214 324.042 88.1214 323.562C88.1214 323.082 87.7284 322.689 87.2482 322.689C86.7679 322.689 86.3749 323.082 86.3749 323.562C86.3749 324.042 86.7679 324.435 87.2482 324.435ZM93.0503 324.493C95.2431 324.493 96.5045 322.635 96.5045 319.39C96.5045 316.168 95.2237 314.286 93.0503 314.286C90.8769 314.286 89.5962 316.168 89.5962 319.39C89.5962 322.635 90.8575 324.493 93.0503 324.493ZM93.0503 323.426C91.6046 323.426 90.7605 321.975 90.7605 319.39C90.7605 316.809 91.6143 315.334 93.0503 315.334C94.4863 315.334 95.3401 316.809 95.3401 319.39C95.3401 321.975 94.496 323.426 93.0503 323.426Z" fill="#999999"/>
<path d="M81.7152 279.315C83.7237 279.339 85.0335 277.825 85.0335 275.977C85.0335 274.056 83.6121 272.678 81.9093 272.678C80.8857 272.678 80.0076 273.178 79.4642 273.998H79.3866C79.3915 271.577 80.3326 270.175 81.8705 270.175C82.9184 270.175 83.549 270.834 83.7722 271.727H84.9559C84.7133 270.184 83.5393 269.107 81.8705 269.107C79.634 269.107 78.2611 271.087 78.2611 274.599C78.2611 278.272 80.0852 279.295 81.7152 279.315ZM81.7152 278.247C80.4684 278.247 79.5564 277.185 79.5613 275.996C79.5661 274.808 80.5218 273.745 81.754 273.745C82.9717 273.745 83.8692 274.745 83.8692 275.977C83.8692 277.238 82.9329 278.247 81.7152 278.247ZM87.3282 279.256C87.8085 279.256 88.2014 278.863 88.2014 278.383C88.2014 277.903 87.8085 277.51 87.3282 277.51C86.8479 277.51 86.455 277.903 86.455 278.383C86.455 278.863 86.8479 279.256 87.3282 279.256ZM93.1413 279.315C95.0333 279.315 96.4208 277.917 96.4208 276.016C96.4208 274.09 95.0818 272.678 93.2577 272.678C92.5882 272.678 91.9382 272.916 91.5306 273.241H91.4724L91.8217 270.311H95.9744V269.243H90.8127L90.2111 274.133L91.3366 274.269C91.749 273.973 92.4524 273.76 93.0637 273.765C94.3299 273.774 95.2565 274.735 95.2565 276.035C95.2565 277.311 94.3638 278.247 93.1413 278.247C92.1225 278.247 91.3123 277.592 91.2202 276.695H90.0559C90.1286 278.208 91.4336 279.315 93.1413 279.315Z" fill="#999999"/>
<path d="M80.5412 233.019H81.8026L86.227 224.209V223.083H79.862V224.15H84.985V224.228L80.5412 233.019ZM88.0547 231.66H86.8128L86.7545 232.204C86.6138 233.518 86.3373 234.828 86.2112 235.444H87.0844C87.3173 234.784 87.8121 233.29 87.9771 232.184L88.0547 231.66ZM93.0503 233.154C95.2431 233.154 96.5045 231.296 96.5045 228.051C96.5045 224.83 95.2237 222.947 93.0503 222.947C90.8769 222.947 89.5962 224.83 89.5962 228.051C89.5962 231.296 90.8575 233.154 93.0503 233.154ZM93.0503 232.087C91.6046 232.087 90.7605 230.637 90.7605 228.051C90.7605 225.47 91.6143 223.995 93.0503 223.995C94.4863 223.995 95.3401 225.47 95.3401 228.051C95.3401 230.637 94.496 232.087 93.0503 232.087Z" fill="#999999"/>
<path d="M80.6213 186.858H81.8826L86.307 178.048V176.923H79.9421V177.99H85.0651V178.068L80.6213 186.858ZM88.1347 185.5H86.8928L86.8346 186.043C86.6939 187.358 86.4174 188.668 86.2912 189.284H87.1645C87.3973 188.624 87.8922 187.13 88.0571 186.024L88.1347 185.5ZM93.1413 186.994C95.0333 186.994 96.4208 185.597 96.4208 183.695C96.4208 181.769 95.0818 180.358 93.2577 180.358C92.5882 180.358 91.9382 180.595 91.5307 180.92H91.4724L91.8217 177.99H95.9745V176.923H90.8127L90.2111 181.813L91.3366 181.949C91.749 181.653 92.4524 181.439 93.0637 181.444C94.3299 181.454 95.2565 182.415 95.2565 183.715C95.2565 184.991 94.3638 185.927 93.1413 185.927C92.1225 185.927 91.3123 185.272 91.2202 184.375H90.0559C90.1286 185.888 91.4336 186.994 93.1413 186.994Z" fill="#999999"/>
<path d="M81.4654 142.797C83.4496 142.797 84.8322 141.638 84.8419 140.022C84.8322 138.766 83.9929 137.698 82.9208 137.499V137.441C83.8522 137.199 84.4635 136.287 84.4732 135.229C84.4635 133.715 83.1925 132.59 81.4654 132.59C79.7189 132.59 78.4479 133.715 78.4576 135.229C78.4479 136.287 79.0591 137.199 80.01 137.441V137.499C78.9185 137.698 78.0792 138.766 78.0889 140.022C78.0792 141.638 79.4618 142.797 81.4654 142.797ZM81.4654 141.73C80.1022 141.73 79.2629 141.031 79.2726 139.964C79.2629 138.843 80.1895 138.043 81.4654 138.043C82.7219 138.043 83.6485 138.843 83.6582 139.964C83.6485 141.031 82.8092 141.73 81.4654 141.73ZM81.4654 137.014C80.3787 137.014 79.6122 136.335 79.6219 135.307C79.6122 134.297 80.3496 133.638 81.4654 133.638C82.5618 133.638 83.2992 134.297 83.3089 135.307C83.2992 136.335 82.5327 137.014 81.4654 137.014ZM87.2482 142.739C87.7284 142.739 88.1214 142.346 88.1214 141.866C88.1214 141.385 87.7284 140.992 87.2482 140.992C86.7679 140.992 86.3749 141.385 86.3749 141.866C86.3749 142.346 86.7679 142.739 87.2482 142.739ZM93.0503 142.797C95.2431 142.797 96.5045 140.939 96.5045 137.693C96.5045 134.472 95.2237 132.59 93.0503 132.59C90.8769 132.59 89.5962 134.472 89.5962 137.693C89.5962 140.939 90.8575 142.797 93.0503 142.797ZM93.0503 141.73C91.6046 141.73 90.7605 140.279 90.7605 137.693C90.7605 135.112 91.6143 133.638 93.0503 133.638C94.4863 133.638 95.3401 135.112 95.3401 137.693C95.3401 140.279 94.496 141.73 93.0503 141.73Z" fill="#999999"/>
<path d="M79.705 85.2192H82.4504C82.4107 82.8046 80.4261 81.1375 77.4095 81.1375C74.4391 81.1375 72.2627 82.7781 72.2759 85.239C72.2693 87.2369 73.6784 88.3814 75.9673 88.9304L77.4425 89.3009C78.9178 89.6581 79.7381 90.0815 79.7447 90.9945C79.7381 91.9868 78.7987 92.6615 77.3433 92.6615C75.8548 92.6615 74.7831 91.9735 74.6905 90.6174H71.9187C71.9914 93.548 74.0885 95.0629 77.3764 95.0629C80.6841 95.0629 82.629 93.4819 82.6356 91.0011C82.629 88.7452 80.9289 87.5478 78.5738 87.0186L77.3565 86.7275C76.179 86.4563 75.1933 86.0197 75.2131 85.0472C75.2131 84.174 75.9871 83.5323 77.3896 83.5323C78.759 83.5323 79.5992 84.1541 79.705 85.2192ZM87.407 95.0629C88.9087 95.0629 89.8812 94.408 90.3773 93.462H90.4567V94.8711H93.1294V88.0175C93.1294 85.5963 91.0786 84.5775 88.8161 84.5775C86.3816 84.5775 84.7807 85.7418 84.3904 87.5941L86.9969 87.8058C87.1887 87.131 87.7907 86.6349 88.8029 86.6349C89.7621 86.6349 90.3112 87.1178 90.3112 87.9514V87.9911C90.3112 88.646 89.6166 88.732 87.8503 88.904C85.8392 89.0892 84.0332 89.764 84.0332 92.0331C84.0332 94.0442 85.4687 95.0629 87.407 95.0629ZM88.2141 93.118C87.3475 93.118 86.7256 92.7145 86.7256 91.9405C86.7256 91.1466 87.3806 90.7563 88.3729 90.6174C88.9881 90.5314 89.9937 90.3858 90.331 90.1609V91.2392C90.331 92.3043 89.4512 93.118 88.2141 93.118ZM98.1339 81.3227H95.3158V94.8711H98.1339V81.3227ZM105.022 95.0696C107.536 95.0696 109.23 93.8457 109.627 91.9603L107.02 91.7883C106.736 92.5623 106.008 92.9659 105.069 92.9659C103.659 92.9659 102.766 92.0331 102.766 90.5181V90.5115H109.686V89.7375C109.686 86.2843 107.596 84.5775 104.91 84.5775C101.92 84.5775 99.9813 86.701 99.9813 89.8368C99.9813 93.0585 101.893 95.0696 105.022 95.0696ZM102.766 88.7651C102.826 87.6074 103.706 86.6812 104.956 86.6812C106.18 86.6812 107.027 87.5544 107.033 88.7651H102.766ZM119.98 87.6074C119.728 85.7352 118.22 84.5775 115.653 84.5775C113.053 84.5775 111.34 85.7815 111.347 87.7397C111.34 89.2612 112.299 90.2469 114.284 90.6438L116.044 90.9945C116.93 91.1731 117.334 91.4972 117.347 92.0066C117.334 92.6086 116.679 93.0386 115.693 93.0386C114.687 93.0386 114.019 92.6086 113.847 91.7817L111.075 91.9272C111.34 93.8722 112.994 95.0696 115.686 95.0696C118.319 95.0696 120.205 93.7266 120.211 91.7222C120.205 90.2535 119.245 89.3737 117.274 88.9701L115.435 88.5997C114.489 88.3946 114.138 88.0704 114.145 87.5809C114.138 86.9723 114.826 86.5754 115.7 86.5754C116.679 86.5754 117.261 87.1112 117.4 87.7661L119.98 87.6074ZM126.35 94.8711H129.215V90.4785H131.623C134.739 90.4785 136.551 88.6195 136.551 85.9138C136.551 83.2213 134.772 81.3227 131.696 81.3227H126.35V94.8711ZM129.215 88.1829V83.6646H131.147C132.8 83.6646 133.601 84.5643 133.601 85.9138C133.601 87.2567 132.8 88.1829 131.16 88.1829H129.215ZM138.359 94.8711H141.177V89.1223C141.177 87.872 142.09 87.012 143.334 87.012C143.724 87.012 144.26 87.0781 144.525 87.1641V84.6635C144.273 84.604 143.923 84.5643 143.638 84.5643C142.5 84.5643 141.567 85.2258 141.197 86.4827H141.091V84.7098H138.359V94.8711ZM150.1 95.0696C153.183 95.0696 155.101 92.9592 155.101 89.8301C155.101 86.6812 153.183 84.5775 150.1 84.5775C147.017 84.5775 145.098 86.6812 145.098 89.8301C145.098 92.9592 147.017 95.0696 150.1 95.0696ZM150.113 92.8865C148.691 92.8865 147.963 91.5832 147.963 89.8103C147.963 88.0374 148.691 86.7275 150.113 86.7275C151.509 86.7275 152.237 88.0374 152.237 89.8103C152.237 91.5832 151.509 92.8865 150.113 92.8865ZM161.511 98.8933C164.416 98.8933 166.48 97.5702 166.48 94.9703V84.7098H163.681V86.4166H163.575C163.198 85.5897 162.371 84.5775 160.671 84.5775C158.442 84.5775 156.556 86.3107 156.556 89.7706C156.556 93.1511 158.389 94.7256 160.678 94.7256C162.299 94.7256 163.205 93.9119 163.575 93.0717H163.694V94.9306C163.694 96.3265 162.801 96.869 161.577 96.869C160.334 96.869 159.705 96.3265 159.474 95.7113L156.867 96.0619C157.205 97.6628 158.773 98.8933 161.511 98.8933ZM161.571 92.6086C160.188 92.6086 159.434 91.5105 159.434 89.7574C159.434 88.0307 160.175 86.8201 161.571 86.8201C162.94 86.8201 163.708 87.9778 163.708 89.7574C163.708 91.5502 162.927 92.6086 161.571 92.6086ZM168.722 94.8711H171.54V89.1223C171.54 87.872 172.453 87.012 173.697 87.012C174.087 87.012 174.623 87.0781 174.888 87.1641V84.6635C174.636 84.604 174.286 84.5643 174.001 84.5643C172.863 84.5643 171.931 85.2258 171.56 86.4827H171.454V84.7098H168.722V94.8711ZM180.503 95.0696C183.016 95.0696 184.71 93.8457 185.107 91.9603L182.5 91.7883C182.216 92.5623 181.488 92.9659 180.549 92.9659C179.14 92.9659 178.247 92.0331 178.247 90.5181V90.5115H185.166V89.7375C185.166 86.2843 183.076 84.5775 180.39 84.5775C177.4 84.5775 175.462 86.701 175.462 89.8368C175.462 93.0585 177.373 95.0696 180.503 95.0696ZM178.247 88.7651C178.306 87.6074 179.186 86.6812 180.436 86.6812C181.66 86.6812 182.507 87.5544 182.514 88.7651H178.247ZM195.46 87.6074C195.209 85.7352 193.7 84.5775 191.134 84.5775C188.534 84.5775 186.82 85.7815 186.827 87.7397C186.82 89.2612 187.78 90.2469 189.764 90.6438L191.524 90.9945C192.41 91.1731 192.814 91.4972 192.827 92.0066C192.814 92.6086 192.159 93.0386 191.173 93.0386C190.168 93.0386 189.5 92.6086 189.328 91.7817L186.556 91.9272C186.82 93.8722 188.474 95.0696 191.167 95.0696C193.8 95.0696 195.685 93.7266 195.692 91.7222C195.685 90.2535 194.726 89.3737 192.754 88.9701L190.915 88.5997C189.969 88.3946 189.619 88.0704 189.625 87.5809C189.619 86.9723 190.307 86.5754 191.18 86.5754C192.159 86.5754 192.741 87.1112 192.88 87.7661L195.46 87.6074ZM205.921 87.6074C205.669 85.7352 204.161 84.5775 201.594 84.5775C198.994 84.5775 197.281 85.7815 197.288 87.7397C197.281 89.2612 198.24 90.2469 200.225 90.6438L201.984 90.9945C202.871 91.1731 203.274 91.4972 203.288 92.0066C203.274 92.6086 202.62 93.0386 201.634 93.0386C200.628 93.0386 199.96 92.6086 199.788 91.7817L197.016 91.9272C197.281 93.8722 198.935 95.0696 201.627 95.0696C204.26 95.0696 206.146 93.7266 206.152 91.7222C206.146 90.2535 205.186 89.3737 203.215 88.9701L201.376 88.5997C200.43 88.3946 200.079 88.0704 200.086 87.5809C200.079 86.9723 200.767 86.5754 201.64 86.5754C202.62 86.5754 203.202 87.1112 203.341 87.7661L205.921 87.6074Z" fill="#12141D"/>
</g>
<defs>
<filter id="filter0_d_3601_3932" x="0" y="0" width="542.258" height="505" filterUnits="userSpaceOnUse" color-interpolation-filters="sRGB">
<feFlood flood-opacity="0" result="BackgroundImageFix"/>
<feColorMatrix in="SourceAlpha" type="matrix" values="0 0 0 0 0 0 0 0 0 0 0 0 0 0 0 0 0 0 127 0" result="hardAlpha"/>
<feOffset dy="4"/>
<feGaussianBlur stdDeviation="30"/>
<feComposite in2="hardAlpha" operator="out"/>
<feColorMatrix type="matrix" values="0 0 0 0 0 0 0 0 0 0 0 0 0 0 0 0 0 0 0.08 0"/>
<feBlend mode="normal" in2="BackgroundImageFix" result="effect1_dropShadow_3601_3932"/>
<feBlend mode="normal" in="SourceGraphic" in2="effect1_dropShadow_3601_3932" result="shape"/>
</filter>
<filter id="filter1_dd_3601_3932" x="317.702" y="194.073" width="27.3226" height="27.3226" filterUnits="userSpaceOnUse" color-interpolation-filters="sRGB">
<feFlood flood-opacity="0" result="BackgroundImageFix"/>
<feColorMatrix in="SourceAlpha" type="matrix" values="0 0 0 0 0 0 0 0 0 0 0 0 0 0 0 0 0 0 127 0" result="hardAlpha"/>
<feOffset dy="2.48387"/>
<feGaussianBlur stdDeviation="2.48387"/>
<feColorMatrix type="matrix" values="0 0 0 0 0.196487 0 0 0 0 0.196487 0 0 0 0 0.279476 0 0 0 0.06 0"/>
<feBlend mode="multiply" in2="BackgroundImageFix" result="effect1_dropShadow_3601_3932"/>
<feColorMatrix in="SourceAlpha" type="matrix" values="0 0 0 0 0 0 0 0 0 0 0 0 0 0 0 0 0 0 127 0" result="hardAlpha"/>
<feOffset dy="2.48387"/>
<feGaussianBlur stdDeviation="1.24194"/>
<feColorMatrix type="matrix" values="0 0 0 0 0.196487 0 0 0 0 0.196487 0 0 0 0 0.279476 0 0 0 0.06 0"/>
<feBlend mode="multiply" in2="effect1_dropShadow_3601_3932" result="effect2_dropShadow_3601_3932"/>
<feBlend mode="normal" in="SourceGraphic" in2="effect2_dropShadow_3601_3932" result="shape"/>
</filter>
<filter id="filter2_dd_3601_3932" x="394.7" y="165.508" width="27.3226" height="27.3226" filterUnits="userSpaceOnUse" color-interpolation-filters="sRGB">
<feFlood flood-opacity="0" result="BackgroundImageFix"/>
<feColorMatrix in="SourceAlpha" type="matrix" values="0 0 0 0 0 0 0 0 0 0 0 0 0 0 0 0 0 0 127 0" result="hardAlpha"/>
<feOffset dy="2.48387"/>
<feGaussianBlur stdDeviation="2.48387"/>
<feColorMatrix type="matrix" values="0 0 0 0 0.196487 0 0 0 0 0.196487 0 0 0 0 0.279476 0 0 0 0.06 0"/>
<feBlend mode="multiply" in2="BackgroundImageFix" result="effect1_dropShadow_3601_3932"/>
<feColorMatrix in="SourceAlpha" type="matrix" values="0 0 0 0 0 0 0 0 0 0 0 0 0 0 0 0 0 0 127 0" result="hardAlpha"/>
<feOffset dy="2.48387"/>
<feGaussianBlur stdDeviation="1.24194"/>
<feColorMatrix type="matrix" values="0 0 0 0 0.196487 0 0 0 0 0.196487 0 0 0 0 0.279476 0 0 0 0.06 0"/>
<feBlend mode="multiply" in2="effect1_dropShadow_3601_3932" result="effect2_dropShadow_3601_3932"/>
<feBlend mode="normal" in="SourceGraphic" in2="effect2_dropShadow_3601_3932" result="shape"/>
</filter>
<filter id="filter3_dd_3601_3932" x="358.685" y="236.298" width="27.3226" height="27.3226" filterUnits="userSpaceOnUse" color-interpolation-filters="sRGB">
<feFlood flood-opacity="0" result="BackgroundImageFix"/>
<feColorMatrix in="SourceAlpha" type="matrix" values="0 0 0 0 0 0 0 0 0 0 0 0 0 0 0 0 0 0 127 0" result="hardAlpha"/>
<feOffset dy="2.48387"/>
<feGaussianBlur stdDeviation="2.48387"/>
<feColorMatrix type="matrix" values="0 0 0 0 0.196487 0 0 0 0 0.196487 0 0 0 0 0.279476 0 0 0 0.06 0"/>
<feBlend mode="multiply" in2="BackgroundImageFix" result="effect1_dropShadow_3601_3932"/>
<feColorMatrix in="SourceAlpha" type="matrix" values="0 0 0 0 0 0 0 0 0 0 0 0 0 0 0 0 0 0 127 0" result="hardAlpha"/>
<feOffset dy="2.48387"/>
<feGaussianBlur stdDeviation="1.24194"/>
<feColorMatrix type="matrix" values="0 0 0 0 0.196487 0 0 0 0 0.196487 0 0 0 0 0.279476 0 0 0 0.06 0"/>
<feBlend mode="multiply" in2="effect1_dropShadow_3601_3932" result="effect2_dropShadow_3601_3932"/>
<feBlend mode="normal" in="SourceGraphic" in2="effect2_dropShadow_3601_3932" result="shape"/>
</filter>
<filter id="filter4_dd_3601_3932" x="275.478" y="215.186" width="27.3226" height="27.3226" filterUnits="userSpaceOnUse" color-interpolation-filters="sRGB">
<feFlood flood-opacity="0" result="BackgroundImageFix"/>
<feColorMatrix in="SourceAlpha" type="matrix" values="0 0 0 0 0 0 0 0 0 0 0 0 0 0 0 0 0 0 127 0" result="hardAlpha"/>
<feOffset dy="2.48387"/>
<feGaussianBlur stdDeviation="2.48387"/>
<feColorMatrix type="matrix" values="0 0 0 0 0.196487 0 0 0 0 0.196487 0 0 0 0 0.279476 0 0 0 0.06 0"/>
<feBlend mode="multiply" in2="BackgroundImageFix" result="effect1_dropShadow_3601_3932"/>
<feColorMatrix in="SourceAlpha" type="matrix" values="0 0 0 0 0 0 0 0 0 0 0 0 0 0 0 0 0 0 127 0" result="hardAlpha"/>
<feOffset dy="2.48387"/>
<feGaussianBlur stdDeviation="1.24194"/>
<feColorMatrix type="matrix" values="0 0 0 0 0.196487 0 0 0 0 0.196487 0 0 0 0 0.279476 0 0 0 0.06 0"/>
<feBlend mode="multiply" in2="effect1_dropShadow_3601_3932" result="effect2_dropShadow_3601_3932"/>
<feBlend mode="normal" in="SourceGraphic" in2="effect2_dropShadow_3601_3932" result="shape"/>
</filter>
<filter id="filter5_dd_3601_3932" x="227.042" y="279.767" width="27.3226" height="27.3226" filterUnits="userSpaceOnUse" color-interpolation-filters="sRGB">
<feFlood flood-opacity="0" result="BackgroundImageFix"/>
<feColorMatrix in="SourceAlpha" type="matrix" values="0 0 0 0 0 0 0 0 0 0 0 0 0 0 0 0 0 0 127 0" result="hardAlpha"/>
<feOffset dy="2.48387"/>
<feGaussianBlur stdDeviation="2.48387"/>
<feColorMatrix type="matrix" values="0 0 0 0 0.196487 0 0 0 0 0.196487 0 0 0 0 0.279476 0 0 0 0.06 0"/>
<feBlend mode="multiply" in2="BackgroundImageFix" result="effect1_dropShadow_3601_3932"/>
<feColorMatrix in="SourceAlpha" type="matrix" values="0 0 0 0 0 0 0 0 0 0 0 0 0 0 0 0 0 0 127 0" result="hardAlpha"/>
<feOffset dy="2.48387"/>
<feGaussianBlur stdDeviation="1.24194"/>
<feColorMatrix type="matrix" values="0 0 0 0 0.196487 0 0 0 0 0.196487 0 0 0 0 0.279476 0 0 0 0.06 0"/>
<feBlend mode="multiply" in2="effect1_dropShadow_3601_3932" result="effect2_dropShadow_3601_3932"/>
<feBlend mode="normal" in="SourceGraphic" in2="effect2_dropShadow_3601_3932" result="shape"/>
</filter>
<filter id="filter6_dd_3601_3932" x="184.814" y="257.412" width="27.3226" height="27.3226" filterUnits="userSpaceOnUse" color-interpolation-filters="sRGB">
<feFlood flood-opacity="0" result="BackgroundImageFix"/>
<feColorMatrix in="SourceAlpha" type="matrix" values="0 0 0 0 0 0 0 0 0 0 0 0 0 0 0 0 0 0 127 0" result="hardAlpha"/>
<feOffset dy="2.48387"/>
<feGaussianBlur stdDeviation="2.48387"/>
<feColorMatrix type="matrix" values="0 0 0 0 0.196487 0 0 0 0 0.196487 0 0 0 0 0.279476 0 0 0 0.06 0"/>
<feBlend mode="multiply" in2="BackgroundImageFix" result="effect1_dropShadow_3601_3932"/>
<feColorMatrix in="SourceAlpha" type="matrix" values="0 0 0 0 0 0 0 0 0 0 0 0 0 0 0 0 0 0 127 0" result="hardAlpha"/>
<feOffset dy="2.48387"/>
<feGaussianBlur stdDeviation="1.24194"/>
<feColorMatrix type="matrix" values="0 0 0 0 0.196487 0 0 0 0 0.196487 0 0 0 0 0.279476 0 0 0 0.06 0"/>
<feBlend mode="multiply" in2="effect1_dropShadow_3601_3932" result="effect2_dropShadow_3601_3932"/>
<feBlend mode="normal" in="SourceGraphic" in2="effect2_dropShadow_3601_3932" result="shape"/>
</filter>
<filter id="filter7_dd_3601_3932" x="138.864" y="318.266" width="27.3226" height="27.3226" filterUnits="userSpaceOnUse" color-interpolation-filters="sRGB">
<feFlood flood-opacity="0" result="BackgroundImageFix"/>
<feColorMatrix in="SourceAlpha" type="matrix" values="0 0 0 0 0 0 0 0 0 0 0 0 0 0 0 0 0 0 127 0" result="hardAlpha"/>
<feOffset dy="2.48387"/>
<feGaussianBlur stdDeviation="2.48387"/>
<feColorMatrix type="matrix" values="0 0 0 0 0.196487 0 0 0 0 0.196487 0 0 0 0 0.279476 0 0 0 0.06 0"/>
<feBlend mode="multiply" in2="BackgroundImageFix" result="effect1_dropShadow_3601_3932"/>
<feColorMatrix in="SourceAlpha" type="matrix" values="0 0 0 0 0 0 0 0 0 0 0 0 0 0 0 0 0 0 127 0" result="hardAlpha"/>
<feOffset dy="2.48387"/>
<feGaussianBlur stdDeviation="1.24194"/>
<feColorMatrix type="matrix" values="0 0 0 0 0.196487 0 0 0 0 0.196487 0 0 0 0 0.279476 0 0 0 0.06 0"/>
<feBlend mode="multiply" in2="effect1_dropShadow_3601_3932" result="effect2_dropShadow_3601_3932"/>
<feBlend mode="normal" in="SourceGraphic" in2="effect2_dropShadow_3601_3932" result="shape"/>
</filter>
</defs>
</svg>
