<svg width="60" height="60" viewBox="0 0 60 60" fill="none" xmlns="http://www.w3.org/2000/svg">
<g id="icon">
<circle id="BG" cx="30" cy="30" r="30" fill="#008EFF"/>
<path id="Vector" d="M37.7557 40.7629C37.9535 40.7629 38.1432 40.8413 38.2833 40.9809C38.4234 41.1205 38.5024 41.31 38.503 41.5078V42.2551C38.5024 42.4529 38.4234 42.6423 38.2833 42.782C38.1432 42.9216 37.9535 43 37.7557 43H22.8335C22.6358 43 22.446 42.9216 22.306 42.782C22.1659 42.6423 22.0869 42.4529 22.0862 42.2551V41.5078C22.0869 41.31 22.1659 41.1205 22.306 40.9809C22.446 40.8413 22.6358 40.7629 22.8335 40.7629H37.7557ZM44.8443 18.0072C45.0419 18.0072 45.2314 18.0856 45.3711 18.2253C45.5108 18.365 45.5892 18.5545 45.5892 18.7521V37.406C45.5892 37.6035 45.5108 37.793 45.3711 37.9327C45.2314 38.0724 45.0419 38.1509 44.8443 38.1509H15.7449C15.5474 38.1509 15.3579 38.0724 15.2182 37.9327C15.0785 37.793 15 37.6035 15 37.406V18.7449C15 18.5474 15.0785 18.3579 15.2182 18.2182C15.3579 18.0785 15.5474 18 15.7449 18L44.8443 18.0072ZM43.3521 20.23H17.2371V35.8994H43.3521V20.23ZM27.7853 23.6394C27.9114 23.6399 28.0353 23.6719 28.1458 23.7325L34.6782 27.3496C34.8512 27.4457 34.979 27.6065 35.0336 27.7968C35.0882 27.987 35.0651 28.1911 34.9694 28.3643C34.903 28.4879 34.8017 28.5891 34.6782 28.6556L28.1458 32.2728C28.0603 32.3206 27.9661 32.351 27.8688 32.3624C27.7714 32.3737 27.6728 32.3657 27.5785 32.3389C27.4843 32.3121 27.3962 32.2669 27.3194 32.206C27.2427 32.145 27.1787 32.0696 27.1311 31.9839C27.0708 31.8723 27.0388 31.7477 27.038 31.621V24.3867C27.038 24.1885 27.1167 23.9984 27.2569 23.8583C27.397 23.7181 27.5871 23.6394 27.7853 23.6394ZM29.2775 26.9151V29.0854L31.2496 28.0038L29.2775 26.9151Z" fill="white"/>
</g>
</svg>
