<svg width="60" height="60" viewBox="0 0 60 60" fill="none" xmlns="http://www.w3.org/2000/svg">
<g id="icon">
<circle id="BG" cx="30" cy="30" r="30" fill="#FABB18"/>
<g id="icon_2">
<path id="Vector" d="M20.25 34.0156C19.6028 34.0156 19.0781 34.5403 19.0781 35.1875C19.0781 35.8347 19.6028 36.3594 20.25 36.3594H29.625C30.2722 36.3594 30.7969 35.8347 30.7969 35.1875C30.7969 34.5403 30.2722 34.0156 29.625 34.0156H20.25Z" fill="white"/>
<path id="Vector_2" fill-rule="evenodd" clip-rule="evenodd" d="M18.6875 18C16.0987 18 14 20.0987 14 22.6875V38.3125C14 40.9014 16.0987 43 18.6875 43H40.5625C43.1514 43 45.25 40.9014 45.25 38.3125V22.6875C45.25 20.0987 43.1514 18 40.5625 18H18.6875ZM40.5625 20.3438H18.6875C17.3931 20.3438 16.3438 21.3931 16.3438 22.6875V24.6406H42.9062V22.6875C42.9062 21.3931 41.8569 20.3438 40.5625 20.3438ZM16.3438 38.3125V26.9844H42.9062V38.3125C42.9062 39.6069 41.8569 40.6562 40.5625 40.6562H18.6875C17.3931 40.6562 16.3438 39.6069 16.3438 38.3125Z" fill="white"/>
</g>
</g>
</svg>
