<svg width="60" height="60" viewBox="0 0 60 60" fill="none" xmlns="http://www.w3.org/2000/svg">
<g id="icon">
<circle id="BG" cx="30" cy="30" r="30" fill="#45C646"/>
<g id="icon_2">
<path id="Vector" d="M29.9955 42.9999C32.2799 42.9999 34.1317 41.148 34.1317 38.8637C34.1317 36.5794 32.2799 34.7275 29.9955 34.7275C27.7112 34.7275 25.8594 36.5794 25.8594 38.8637C25.8594 41.148 27.7112 42.9999 29.9955 42.9999Z" stroke="white" stroke-width="2" stroke-linecap="round" stroke-linejoin="round"/>
<path id="Vector_2" d="M38.8647 25.2723C41.149 25.2723 43.0008 23.4205 43.0008 21.1362C43.0008 18.8518 41.149 17 38.8647 17C36.5803 17 34.7285 18.8518 34.7285 21.1362C34.7285 23.4205 36.5803 25.2723 38.8647 25.2723Z" stroke="white" stroke-width="2" stroke-linecap="round" stroke-linejoin="round"/>
<path id="Vector_3" d="M21.1362 25.2723C23.4205 25.2723 25.2723 23.4205 25.2723 21.1362C25.2723 18.8518 23.4205 17 21.1362 17C18.8518 17 17 18.8518 17 21.1362C17 23.4205 18.8518 25.2723 21.1362 25.2723Z" stroke="white" stroke-width="2" stroke-linecap="round" stroke-linejoin="round"/>
<path id="Vector_4" d="M21.1367 25.2715V26.4535C21.1367 26.9191 21.2284 27.3801 21.4066 27.8103C21.5848 28.2404 21.8459 28.6312 22.1751 28.9605C22.5044 29.2897 22.8952 29.5508 23.3253 29.729C23.7555 29.9071 24.2165 29.9988 24.6821 29.9988L35.3179 29.9986C36.2582 29.9986 37.1599 29.6251 37.8248 28.9602C38.4896 28.2953 38.8631 27.3936 38.8631 26.4533V25.2715" stroke="white" stroke-width="2" stroke-linecap="round" stroke-linejoin="round"/>
<path id="Vector_5" d="M30.0003 30L30 34.727" stroke="white" stroke-width="2" stroke-linecap="round" stroke-linejoin="round"/>
</g>
</g>
</svg>
